<svg xmlns="http://www.w3.org/2000/svg" viewBox="0 0 82.81 38.85"><defs><style>.cls-1{fill:#fff;}.cls-2{fill:#1e1e1e;}.cls-3{fill:#fcd116;}.cls-4{fill:#003893;}.cls-5{fill:#ce1126;}</style></defs><g id="Capa_2" data-name="Capa 2"><g id="Capa_1-2" data-name="Capa 1"><path class="cls-1" d="M8.59,25.81A2.61,2.61,0,0,1,9,27.23,3.06,3.06,0,0,1,8.39,29a2.27,2.27,0,0,1-.79.73,1.94,1.94,0,0,1-.93.23,1.7,1.7,0,0,1-1.13-.4,1.26,1.26,0,0,1-.47-1,1.73,1.73,0,0,1,.29-.9,1,1,0,0,0,.64.26.79.79,0,0,0,.45-.13,1.31,1.31,0,0,0,.6-1.1,1.36,1.36,0,0,0-.68-1.17,1.67,1.67,0,0,0-.91-.32,1.76,1.76,0,0,0-1.26.58,4.27,4.27,0,0,0-.94,1.51,5.34,5.34,0,0,0-.35,1.87,3.31,3.31,0,0,0,.44,1.74A3.06,3.06,0,0,0,4.46,32a3.28,3.28,0,0,0,1.37.44h.34a4.41,4.41,0,0,0,1.52-.26,3,3,0,0,0,1.16-.78l.64.66a4.74,4.74,0,0,1-1.92,1.46,6.26,6.26,0,0,1-2.51.51,5.08,5.08,0,0,1-2.54-.65A4.94,4.94,0,0,1,.68,31.67,4.65,4.65,0,0,1,0,29.21a4.8,4.8,0,0,1,.68-2.49,5,5,0,0,1,1.84-1.8,5.07,5.07,0,0,1,2.54-.66,7.55,7.55,0,0,1,1.39.1,3.15,3.15,0,0,1,1.06.41A2.91,2.91,0,0,1,8.59,25.81Z"/><path class="cls-1" d="M11.06,33.57a2.59,2.59,0,0,1-1-1,3,3,0,0,1,0-2.78,2.5,2.5,0,0,1,1-1,2.82,2.82,0,0,1,1.47-.37A2.78,2.78,0,0,1,14,28.8a2.47,2.47,0,0,1,1,1,3,3,0,0,1,0,2.78,2.56,2.56,0,0,1-1,1,2.87,2.87,0,0,1-1.46.36A2.91,2.91,0,0,1,11.06,33.57ZM13,33a2.37,2.37,0,0,0,.34-.78,4.65,4.65,0,0,0,0-2.1,2.47,2.47,0,0,0-.34-.78.54.54,0,0,0-.44-.28.57.57,0,0,0-.45.28,2.26,2.26,0,0,0-.32.78,4.31,4.31,0,0,0,0,2.1,2.18,2.18,0,0,0,.32.78.57.57,0,0,0,.45.28A.54.54,0,0,0,13,33Z"/><path class="cls-1" d="M19.7,27.57a3.5,3.5,0,0,1-1.87.43v4.17a1.9,1.9,0,0,0,.17.94.62.62,0,0,0,.44.31l0,.42H15.4l0-.42a.62.62,0,0,0,.44-.31,1.9,1.9,0,0,0,.17-.94V29a9.28,9.28,0,0,1,.07-1.19,3.42,3.42,0,0,1-.88-.42c-.24-.16-.59-.43-1-.79a2.56,2.56,0,0,0-1.33-.71.57.57,0,0,0-.39.16,1.65,1.65,0,0,0-.31.46.8.8,0,0,1-.69.39.92.92,0,0,1-.49-.13.86.86,0,0,1-.3-.3.66.66,0,0,1-.12-.38,1,1,0,0,1,.13-.44,1.07,1.07,0,0,1,.55-.44,2.17,2.17,0,0,1,.84-.15,3.35,3.35,0,0,1,.89.12,3,3,0,0,1,.81.37c.26.17.49.35.71.52l.38.32c.31.25.55.43.73.56a2.74,2.74,0,0,0,.62.3,3,3,0,0,1,.88-1.57,2.27,2.27,0,0,1,1.52-.53,2.06,2.06,0,0,1,1.27.36,1.12,1.12,0,0,1,.48.94A1.3,1.3,0,0,1,19.7,27.57ZM18,26.14a3.67,3.67,0,0,0-.18,1.28,2.72,2.72,0,0,0,1.26-.3.75.75,0,0,0-.32-1.45A.73.73,0,0,0,18,26.14Z"/><path class="cls-1" d="M19.87,33.57a2.59,2.59,0,0,1-1-1,3,3,0,0,1,0-2.78,2.5,2.5,0,0,1,1-1,3.07,3.07,0,0,1,2.92,0,2.5,2.5,0,0,1,1,1,3,3,0,0,1,0,2.78,2.59,2.59,0,0,1-1,1,3.14,3.14,0,0,1-2.92,0ZM21.78,33a2.18,2.18,0,0,0,.33-.78,4.31,4.31,0,0,0,0-2.1,2.26,2.26,0,0,0-.33-.78.57.57,0,0,0-.45-.28.54.54,0,0,0-.44.28,2.26,2.26,0,0,0-.33.78,4.65,4.65,0,0,0,0,2.1,2.18,2.18,0,0,0,.33.78.54.54,0,0,0,.44.28A.57.57,0,0,0,21.78,33Z"/><path class="cls-1" d="M31.13,33.11a1.85,1.85,0,0,0,.17-.94V30.35a1.84,1.84,0,0,0-.16-.92.42.42,0,0,0-.36-.25.68.68,0,0,0-.52.29,2.13,2.13,0,0,0-.37.77,3.23,3.23,0,0,0-.14,1v1a1.93,1.93,0,0,0,.16.94.64.64,0,0,0,.44.31v.42H27.47v-.42a.61.61,0,0,0,.43-.31,1.9,1.9,0,0,0,.17-.94V30.34a1.84,1.84,0,0,0-.16-.92.42.42,0,0,0-.36-.25.68.68,0,0,0-.52.29,2.13,2.13,0,0,0-.37.77,3.23,3.23,0,0,0-.14,1v1a1.93,1.93,0,0,0,.16.94.64.64,0,0,0,.44.31v.42H24.21l0-.42a.61.61,0,0,0,.43-.31,1.8,1.8,0,0,0,.17-.94V30.34a1.85,1.85,0,0,0-.1-.7.86.86,0,0,0-.19-.33l-.36-.23a1.52,1.52,0,0,1,.72-.49,2.84,2.84,0,0,1,.95-.17,1.5,1.5,0,0,1,.66.12v.85a1.65,1.65,0,0,1,.7-.72,2,2,0,0,1,1-.3,1.46,1.46,0,0,1,.9.3,1.57,1.57,0,0,1,.55,1A1.15,1.15,0,0,1,30,29a2.5,2.5,0,0,1,.69-.48,1.83,1.83,0,0,1,.76-.18,1.42,1.42,0,0,1,1.08.47A2.11,2.11,0,0,1,33,30.36v1.81a1.88,1.88,0,0,0,.16.94.62.62,0,0,0,.44.31l0,.42H30.7v-.42A.61.61,0,0,0,31.13,33.11Z"/><path class="cls-1" d="M39,29a2.59,2.59,0,0,1,.61,1.92,3.86,3.86,0,0,1-.27,1.35,3.14,3.14,0,0,1-.87,1.23A2.26,2.26,0,0,1,37,34a5.21,5.21,0,0,1-.6,0l-.59-.1a4.58,4.58,0,0,0-.72-.1,2.46,2.46,0,0,0-.67.11V28.66a1.91,1.91,0,0,0-.1-.71.8.8,0,0,0-.19-.32l-.36-.24a1.52,1.52,0,0,1,.75-.49,3.18,3.18,0,0,1,1-.16,1.77,1.77,0,0,1,.69.11V29.1a1.11,1.11,0,0,1,.52-.53,1.53,1.53,0,0,1,.74-.2A2.08,2.08,0,0,1,39,29Zm-1.7,4a2.26,2.26,0,0,0,.35-.88,5.18,5.18,0,0,0,.1-1,4.37,4.37,0,0,0-.2-1.36c-.14-.39-.34-.58-.59-.58s-.44.16-.58.49a3.45,3.45,0,0,0-.2,1.27V32.3a2.26,2.26,0,0,0,.11.84.38.38,0,0,0,.38.24A.74.74,0,0,0,37.29,33Z"/><path class="cls-1" d="M42.9,33.84H39.83l0-.42c.41-.06.61-.45.61-1.16V30.62c0-.79-.2-1.31-.59-1.54a1.5,1.5,0,0,1,.73-.49,3,3,0,0,1,1-.17,1.51,1.51,0,0,1,.67.12v3.63a1.9,1.9,0,0,0,.17.94.62.62,0,0,0,.44.31Zm-2.22-6.18a.9.9,0,0,1-.27-.66c0-.05,0-.12,0-.21a1.07,1.07,0,0,1,.37-.64,1,1,0,0,1,.65-.25.87.87,0,0,1,.66.28.9.9,0,0,1,.27.66,1.1,1.1,0,0,1-.31.78,1,1,0,0,1-.74.31A.86.86,0,0,1,40.68,27.66Z"/><path class="cls-1" d="M53.24,33.11a1.93,1.93,0,0,0,.16-.94V30.34a2,2,0,0,0-.15-.92.45.45,0,0,0-.37-.25.68.68,0,0,0-.51.29,2.13,2.13,0,0,0-.38.77,3.57,3.57,0,0,0-.14,1,9.14,9.14,0,0,1-.28,2.54,2.47,2.47,0,0,1-.88,1.37,2.65,2.65,0,0,1-1.57.42,2,2,0,0,1-1.52-.64,2.94,2.94,0,0,1-.68-1.8h0a1.47,1.47,0,0,1-.7.64,2.38,2.38,0,0,1-1.1.26,2.1,2.1,0,0,1-1.42-.44,1.39,1.39,0,0,1-.51-1.11,1.23,1.23,0,0,1,.4-1,2.58,2.58,0,0,1,1.12-.64,5.24,5.24,0,0,1,1-.18c.37,0,.78-.05,1.23-.05v-.55a1,1,0,0,0-.25-.73.82.82,0,0,0-.59-.26.68.68,0,0,0-.45.17.61.61,0,0,0-.18.47.45.45,0,0,1-.26.42,1.12,1.12,0,0,1-.62.16,1.05,1.05,0,0,1-.57-.15.46.46,0,0,1-.25-.41,1,1,0,0,1,.33-.7,2.15,2.15,0,0,1,.87-.5,4,4,0,0,1,1.23-.18,2.93,2.93,0,0,1,1.45.33,2.1,2.1,0,0,1,.87.9,2.89,2.89,0,0,1,.28,1.3v2.77a2.29,2.29,0,0,0,.11.73,1.38,1.38,0,0,0,.26.47.45.45,0,0,0,.32.16.43.43,0,0,0,.31-.16A1.22,1.22,0,0,0,50,34.4a2.3,2.3,0,0,0,.1-.73V30.11a1.18,1.18,0,0,0-.2-.64,1,1,0,0,0-.31-.28l-.21-.11a2,2,0,0,1,.84-.5,3.34,3.34,0,0,1,1-.16,1.48,1.48,0,0,1,.65.12v.85a1.71,1.71,0,0,1,.7-.72,2,2,0,0,1,1-.3,1.66,1.66,0,0,1,.78.19,1.48,1.48,0,0,1,.62.64,2.28,2.28,0,0,1,.25,1.15v1.82a1.9,1.9,0,0,0,.17.94.62.62,0,0,0,.44.31l0,.42h-3v-.42A.62.62,0,0,0,53.24,33.11Zm-6.68-.49a2.13,2.13,0,0,0,.34-1.26v-.21a3.81,3.81,0,0,0-1.34.21.83.83,0,0,0-.56.87.75.75,0,0,0,.21.55.82.82,0,0,0,.63.22A.93.93,0,0,0,46.56,32.62Z"/><path class="cls-1" d="M59.08,33.84H56l0-.42a.66.66,0,0,0,.44-.3,1.63,1.63,0,0,0,.16-.86V30.62c0-.79-.19-1.31-.58-1.54a1.46,1.46,0,0,1,.73-.49,3,3,0,0,1,1-.17,1.54,1.54,0,0,1,.67.12v3.63a1.8,1.8,0,0,0,.17.94.61.61,0,0,0,.43.31Zm-.23-7.59a1.37,1.37,0,0,1,.32.51,8,8,0,0,1-.85.67c-.28.18-.6.37-1,.55l-.45-.51,1.42-1.61A1.65,1.65,0,0,1,58.85,26.25Z"/><path class="cls-1" d="M62.17,33.1a.68.68,0,0,0,.24-.54.57.57,0,0,0-.29-.43c-.2-.14-.52-.33-.94-.56l-.37-.21c-.16-.09-.31-.17-.43-.25a2.55,2.55,0,0,1-.64-.56,1,1,0,0,1-.23-.63.71.71,0,0,1,0-.26,1.4,1.4,0,0,1,.84-.91A3.67,3.67,0,0,1,62,28.44a2.63,2.63,0,0,1,1.28.28,1,1,0,0,1,.6.69c0,.07,0,.13,0,.16a.59.59,0,0,1-.19.46.67.67,0,0,1-.47.17.64.64,0,0,1-.47-.19.62.62,0,0,1-.14-.53.34.34,0,0,0-.19-.37,1.26,1.26,0,0,0-.57-.13,1,1,0,0,0-.53.13.39.39,0,0,0-.22.35.47.47,0,0,0,.23.34,8,8,0,0,0,.76.46A12.92,12.92,0,0,1,63.3,31a1.46,1.46,0,0,1,.75,1.22,1.52,1.52,0,0,1-.26.82,2,2,0,0,1-.81.65,3,3,0,0,1-1.34.26,4.11,4.11,0,0,1-1.21-.17,2,2,0,0,1-.85-.52,1.09,1.09,0,0,1-.31-.78.76.76,0,0,1,.1-.37.78.78,0,0,1,.3-.33.86.86,0,0,1,.49-.14.77.77,0,0,1,.51.17.49.49,0,0,1,.21.39.42.42,0,0,1,0,.16,1.31,1.31,0,0,1-.13.16l-.09.12a.19.19,0,0,0,0,.12.45.45,0,0,0,.27.41,1.36,1.36,0,0,0,.65.15A1,1,0,0,0,62.17,33.1Z"/><path class="cls-1" d="M67.3,33.84H64.24l0-.42c.4-.06.6-.45.6-1.16V30.62c0-.79-.19-1.31-.59-1.54a1.53,1.53,0,0,1,.74-.49,2.93,2.93,0,0,1,1-.17,1.54,1.54,0,0,1,.67.12v3.63a1.93,1.93,0,0,0,.16.94.64.64,0,0,0,.44.31Zm-2.22-6.18a.89.89,0,0,1-.26-.66,1.79,1.79,0,0,1,0-.21,1.13,1.13,0,0,1,.37-.64,1,1,0,0,1,.66-.25.83.83,0,0,1,.65.28.9.9,0,0,1,.27.66,1.06,1.06,0,0,1-.31.78,1,1,0,0,1-.73.31A.9.9,0,0,1,65.08,27.66Z"/><path class="cls-1" d="M78.35,34.62a.78.78,0,0,1,.24.6,1.39,1.39,0,0,1,0,.32,1.1,1.1,0,0,1-.67.75,2.77,2.77,0,0,1-1.25.27,1.82,1.82,0,0,1-1.52-.64,3.67,3.67,0,0,1-.5-2.22V30.35a2,2,0,0,0-.16-.92.45.45,0,0,0-.36-.25.68.68,0,0,0-.52.29,2.31,2.31,0,0,0-.38.77,3.57,3.57,0,0,0-.14,1v1a1.9,1.9,0,0,0,.17.94.62.62,0,0,0,.44.31v.42H70.76v-.42a.62.62,0,0,0,.44-.31,1.9,1.9,0,0,0,.17-.94V30.34a2,2,0,0,0-.16-.92.45.45,0,0,0-.36-.25.68.68,0,0,0-.52.29,2.31,2.31,0,0,0-.38.77,3.57,3.57,0,0,0-.14,1v1a1.9,1.9,0,0,0,.17.94.62.62,0,0,0,.44.31v.42H67.5l0-.42a.62.62,0,0,0,.44-.31,1.9,1.9,0,0,0,.17-.94V30.34a1.85,1.85,0,0,0-.1-.7.85.85,0,0,0-.2-.33,3,3,0,0,0-.35-.23,1.43,1.43,0,0,1,.72-.49,2.84,2.84,0,0,1,1-.17,1.48,1.48,0,0,1,.65.12v.85a1.74,1.74,0,0,1,.71-.72,2,2,0,0,1,1-.3,1.48,1.48,0,0,1,.9.3,1.57,1.57,0,0,1,.55,1A1.15,1.15,0,0,1,73.3,29a2.6,2.6,0,0,1,.68-.48,1.87,1.87,0,0,1,.77-.18,1.42,1.42,0,0,1,1.08.47,2.16,2.16,0,0,1,.44,1.51v4.78a1.25,1.25,0,0,0,.11.63.4.4,0,0,0,.37.23.35.35,0,0,0,.28-.13.64.64,0,0,0,.11-.4c0-.08,0-.13,0-.18a.72.72,0,0,1,0-.17.73.73,0,0,1,.19-.54.65.65,0,0,1,.48-.19A.79.79,0,0,1,78.35,34.62Z"/><path class="cls-1" d="M78.32,32.68a2.3,2.3,0,0,1-.88-.84,2.34,2.34,0,0,1,0-2.29,2.13,2.13,0,0,1,.87-.81,2.68,2.68,0,0,1,1.32-.31,2.63,2.63,0,0,1,1.3.31,2.13,2.13,0,0,1,.87.81,2.27,2.27,0,0,1,0,2.29,2.2,2.2,0,0,1-.87.84,3,3,0,0,1-2.61,0Zm.64.72a4.39,4.39,0,0,0,.69.06,6.07,6.07,0,0,0,.71-.05,3.19,3.19,0,0,0,.66-.16.33.33,0,0,1,.26.11.35.35,0,0,1,.1.26.38.38,0,0,1-.25.37,3.88,3.88,0,0,1-1.48.22A3.65,3.65,0,0,1,78.2,34a.46.46,0,0,1-.2-.16.42.42,0,0,1-.06-.21.34.34,0,0,1,.36-.36A4.57,4.57,0,0,0,79,33.4ZM80,32.07a1.65,1.65,0,0,0,.29-.58,3.25,3.25,0,0,0,0-1.6A1.8,1.8,0,0,0,80,29.3a.55.55,0,0,0-.4-.22.53.53,0,0,0-.39.22,1.48,1.48,0,0,0-.29.59,3,3,0,0,0,0,1.6,1.37,1.37,0,0,0,.29.58.53.53,0,0,0,.39.22A.55.55,0,0,0,80,32.07Z"/><path class="cls-1" d="M82.81,27.41a.32.32,0,0,1-.63,0,.32.32,0,0,1,.63,0Zm-.55,0a.24.24,0,1,0,.24-.25A.24.24,0,0,0,82.26,27.41Zm.19.16h-.07v-.31h.11a.14.14,0,0,1,.11,0,.06.06,0,0,1,0,.06.09.09,0,0,1-.06.07h0s0,0,.05.07,0,.06,0,.08h-.07a.34.34,0,0,1,0-.08s0,0-.06,0h0Zm0-.18h0s.07,0,.07,0,0-.05-.06-.05h0Z"/><path class="cls-1" d="M25.5,38.8a.65.65,0,0,1-.25-.13l.09-.22a.71.71,0,0,0,.23.12.86.86,0,0,0,.27,0,.44.44,0,0,0,.25-.06.14.14,0,0,0,.08-.14.12.12,0,0,0,0-.1.35.35,0,0,0-.12-.07l-.19,0-.28-.09a.55.55,0,0,1-.19-.12.36.36,0,0,1-.07-.24.39.39,0,0,1,.07-.23.47.47,0,0,1,.2-.16.81.81,0,0,1,.33-.06.86.86,0,0,1,.28,0,.92.92,0,0,1,.23.09l-.09.22a1,1,0,0,0-.21-.09.76.76,0,0,0-.21,0,.38.38,0,0,0-.24.06.17.17,0,0,0-.08.15.12.12,0,0,0,0,.1.35.35,0,0,0,.12.07l.19.05a2.55,2.55,0,0,1,.28.08.46.46,0,0,1,.18.13.34.34,0,0,1,.08.23.37.37,0,0,1-.07.23.41.41,0,0,1-.2.16.9.9,0,0,1-.34.06A1.27,1.27,0,0,1,25.5,38.8Z"/><path class="cls-1" d="M27.46,38.75a.78.78,0,0,1-.29-.28.76.76,0,0,1-.1-.39.77.77,0,0,1,.1-.4.78.78,0,0,1,.29-.28.84.84,0,0,1,.42-.1.8.8,0,0,1,.41.1.71.71,0,0,1,.29.28.75.75,0,0,1,.11.4.74.74,0,0,1-.11.39.71.71,0,0,1-.29.28.8.8,0,0,1-.41.1A.84.84,0,0,1,27.46,38.75Zm.69-.21a.58.58,0,0,0,.19-.19.6.6,0,0,0,.07-.27.61.61,0,0,0-.07-.28.58.58,0,0,0-.19-.19.64.64,0,0,0-.54,0,.5.5,0,0,0-.19.19.51.51,0,0,0-.07.28.52.52,0,0,0,.26.46.64.64,0,0,0,.54,0Z"/><path class="cls-1" d="M30.4,37.39a.49.49,0,0,1,.22.18.55.55,0,0,1,.08.29.51.51,0,0,1-.3.47.91.91,0,0,1-.35.06h-.33v.44h-.28V37.32h.61A.75.75,0,0,1,30.4,37.39Zm-.08.69a.28.28,0,0,0,.09-.22.27.27,0,0,0-.09-.22.39.39,0,0,0-.28-.08h-.32v.6H30A.44.44,0,0,0,30.32,38.08Z"/><path class="cls-1" d="M31.42,37.32h.28v1.51h-.28Z"/><path class="cls-1" d="M32.87,37.56h-.5v-.24h1.27v.24h-.49v1.27h-.28Z"/><path class="cls-1" d="M35.21,38.48h-.76l-.15.35H34l.67-1.51H35l.68,1.51h-.29Zm-.1-.22-.28-.66-.28.66Z"/><path class="cls-1" d="M36.42,38.8a.79.79,0,0,1-.26-.13l.1-.22a.71.71,0,0,0,.23.12.86.86,0,0,0,.27,0,.44.44,0,0,0,.25-.06.16.16,0,0,0,.08-.14.12.12,0,0,0-.05-.1.41.41,0,0,0-.11-.07l-.2,0-.28-.09a.44.44,0,0,1-.18-.12.36.36,0,0,1-.08-.24.48.48,0,0,1,.07-.23.58.58,0,0,1,.21-.16.81.81,0,0,1,.33-.06.84.84,0,0,1,.27,0,.69.69,0,0,1,.23.09l-.09.22a.72.72,0,0,0-.2-.09.76.76,0,0,0-.21,0,.44.44,0,0,0-.25.06.19.19,0,0,0-.08.15.12.12,0,0,0,.05.1.35.35,0,0,0,.12.07l.19.05.27.08a.43.43,0,0,1,.19.13.33.33,0,0,1,.07.23.44.44,0,0,1-.06.23.49.49,0,0,1-.21.16.81.81,0,0,1-.33.06A1.27,1.27,0,0,1,36.42,38.8Z"/><path class="cls-1" d="M40.26,38.85l-.19-.18a.73.73,0,0,1-.5.18.78.78,0,0,1-.28-.05.51.51,0,0,1-.2-.14.35.35,0,0,1-.07-.21.41.41,0,0,1,.08-.25,1.05,1.05,0,0,1,.27-.21.86.86,0,0,1-.13-.17.29.29,0,0,1,0-.16.32.32,0,0,1,.12-.26.53.53,0,0,1,.32-.09.43.43,0,0,1,.29.08.33.33,0,0,1,.11.25.31.31,0,0,1-.07.2,1,1,0,0,1-.24.19l.33.31a1.34,1.34,0,0,0,.08-.26l.22.07a1.11,1.11,0,0,1-.14.35l.19.18Zm-.34-.33-.4-.38a.46.46,0,0,0-.18.13.24.24,0,0,0-.06.15.18.18,0,0,0,.09.15.36.36,0,0,0,.22.06A.57.57,0,0,0,39.92,38.52Zm-.42-1a.13.13,0,0,0,0,.12.29.29,0,0,0,0,.09.58.58,0,0,0,.11.13l.18-.12a.16.16,0,0,0,.05-.12.12.12,0,0,0,0-.1.18.18,0,0,0-.13,0A.2.2,0,0,0,39.5,37.54Z"/><path class="cls-1" d="M43.11,37.39a.49.49,0,0,1,.22.18.55.55,0,0,1,.08.29.51.51,0,0,1-.3.47.91.91,0,0,1-.35.06h-.33v.44h-.28V37.32h.61A.75.75,0,0,1,43.11,37.39Zm-.08.69a.28.28,0,0,0,.09-.22.27.27,0,0,0-.09-.22.39.39,0,0,0-.28-.08h-.32v.6h.32A.44.44,0,0,0,43,38.08Z"/><path class="cls-1" d="M45,38.48h-.76l-.15.35h-.28l.67-1.51h.28l.68,1.51h-.29Zm-.1-.22-.28-.66-.28.66Z"/><path class="cls-1" d="M47.1,38.83l-.3-.44h-.4v.44h-.28V37.32h.62a.74.74,0,0,1,.34.07.44.44,0,0,1,.22.18.5.5,0,0,1-.24.76l.35.5ZM47,37.64a.36.36,0,0,0-.27-.08H46.4v.6h.33a.41.41,0,0,0,.27-.08.26.26,0,0,0,.1-.22A.25.25,0,0,0,47,37.64Z"/><path class="cls-1" d="M49.13,38.83l-.31-.44h-.4v.44h-.28V37.32h.62a.74.74,0,0,1,.34.07.44.44,0,0,1,.22.18.47.47,0,0,1,.08.29.46.46,0,0,1-.32.47l.35.5ZM49,37.64a.36.36,0,0,0-.27-.08h-.33v.6h.33a.41.41,0,0,0,.27-.08.26.26,0,0,0,.1-.22A.25.25,0,0,0,49,37.64Z"/><path class="cls-1" d="M50.16,37.32h.28v1.51h-.28Z"/><path class="cls-1" d="M51.3,37.32h.28v1.27h.78v.24H51.3Z"/><path class="cls-1" d="M53,37.32h.27v1.27h.79v.24H53Z"/><path class="cls-1" d="M55.76,38.48H55l-.15.35h-.29l.68-1.51h.27l.68,1.51h-.29Zm-.09-.22-.29-.66-.28.66Z"/><rect class="cls-1" y="37.91" width="22.35" height="0.17"/><rect class="cls-1" x="58.89" y="37.91" width="22.46" height="0.17"/><path class="cls-1" d="M46.64,9.5h0l.06,0Z"/><path class="cls-1" d="M47.38,8.89l-.26.21.28-.23Z"/><path class="cls-1" d="M46,18.16l.13,0a9.18,9.18,0,0,1-2.18.65l-.4.06L43,19l-.63,0c-.3,0-.6,0-.91-.05s-.54-.07-.81-.12a9.7,9.7,0,0,1-2.17-.72,3.54,3.54,0,0,0,.39-.19,1.69,1.69,0,0,0,.25-.2,1.39,1.39,0,0,0,.39-1.41,1.77,1.77,0,0,0-.5-.82l-.08-.07-.13-.25a4.09,4.09,0,0,0-1.55-1.51l-.69-.37-.12,0-.23-.11L36,13.07,36,13l-.49-.21-.8-.35-.46-.19a7,7,0,0,1-.12-1.45,11.21,11.21,0,0,1,.12-1.15.58.58,0,0,1,.28-.4A4.42,4.42,0,0,1,35.11,9a7.58,7.58,0,0,1,1.49-.38,27.07,27.07,0,0,1,3.12-.35c1.24-.08,2.48-.09,3.72-.07s2.37.1,3.54.24l-.52.43L46.3,9l-.06,0L45.32,9l-1-.07c-1.27-.05-2.55-.05-3.83,0a28.17,28.17,0,0,0-3.66.36,9.17,9.17,0,0,0-1.37.35,1,1,0,0,0-.47.27.67.67,0,0,0,.33.22,4.81,4.81,0,0,0,1.12.33l1.59.24c.52.07,1.05.11,1.57.15.32,0,.63,0,.94,0l1.32.05c.14,0,.29,0,.43,0h.08l1.4,0,1.82-.08c.32,0,.64,0,1-.09s.82-.08,1.22-.14l.17,0a7.73,7.73,0,0,0,1.42-.34,3.11,3.11,0,0,0,.41-.2.5.5,0,0,0,.11-.1,1.28,1.28,0,0,0-.51-.28l.23-.14.5-.3a1,1,0,0,1,.38.3,1,1,0,0,1,.16.49,7,7,0,0,1,0,2.15l-.33.14-.59.25-.8.35-.49.21-.06,0-.12.06-.23.11-.12,0c-.23.12-.47.24-.69.37a4.12,4.12,0,0,0-1.56,1.51,1.87,1.87,0,0,0-.12.25h0l-.09.07a2,2,0,0,0-.5.82,1.42,1.42,0,0,0,.53,1.53l.11.08A3.56,3.56,0,0,0,46,18.16Z"/><path class="cls-1" d="M38.79,16.49a.71.71,0,0,1-.34.83l-.07.05h0c-.2-.1-.4-.22-.59-.33l-.19-.12a1.68,1.68,0,0,0,.45,0,.53.53,0,0,0,.46-.36,1.09,1.09,0,0,0,0-.31,1.57,1.57,0,0,0,0-.28A1.1,1.1,0,0,1,38.79,16.49Z"/><path class="cls-1" d="M53.88,4.85a.23.23,0,0,0-.26-.09l-.18,0A9.08,9.08,0,0,0,50.2,6.5l-.72.63L47.4,8.86h0l-.28.23-.26.22-.12.1h-.05l-.06,0c-.15.13-.3.25-.44.39a.62.62,0,0,1-.46.21h-.35l-.79,0a1.43,1.43,0,0,0-.29,0,3.56,3.56,0,0,0-.91.17h.31c.73,0,1.29-.05,1.8-.08.31,0,.61-.05.92-.08l.32,0c.26,0,.51,0,.76-.09l.69-.4.8-.48.74-.44L51,7.87A8,8,0,0,0,52.23,7a10,10,0,0,0,1.44-1.54c.08-.1.14-.21.21-.31A.23.23,0,0,0,53.88,4.85Z"/><path class="cls-1" d="M37.25,0h.07a2.51,2.51,0,0,1,1.44,1.84,2.65,2.65,0,0,1-.14,1.25c-.15.38-.3.76-.46,1.13a3.4,3.4,0,0,0-.24.95,1.78,1.78,0,0,0,.21,1.15,2.9,2.9,0,0,0,.84,1l.31.23a1.8,1.8,0,0,1-.74-.06,3.12,3.12,0,0,1-1.43-.87,1.85,1.85,0,0,1-.44-1.86c.08-.29.18-.57.28-.85.17-.43.35-.84.51-1.27a3,3,0,0,0,.19-1.39,2.59,2.59,0,0,0-.21-.72C37.37.35,37.32.19,37.25,0Z"/><path class="cls-1" d="M40.76,7.34a1.73,1.73,0,0,1-1.23-.52A2.41,2.41,0,0,1,39,4.41c.1-.33.22-.66.35-1A2.87,2.87,0,0,0,39.57,2c0-.2-.08-.4-.12-.6a1.33,1.33,0,0,1-.05-.19l0,0a2,2,0,0,1,1.08,1.47,2.69,2.69,0,0,1-.1,1.09c-.09.35-.2.68-.28,1a3.25,3.25,0,0,0-.09,1.12,2.38,2.38,0,0,0,.65,1.35l0,0S40.75,7.3,40.76,7.34Z"/><path class="cls-2" d="M47,16.88l.27-.1v0a.29.29,0,0,1,0,.09v0a.7.7,0,0,1-.68.54h0a1.1,1.1,0,0,1-.26,0,1.41,1.41,0,0,1-.31-.1h0l-.06,0a.73.73,0,0,1-.35-.83,1.21,1.21,0,0,1,.33-.5,1.57,1.57,0,0,0,0,.28.82.82,0,0,0,0,.31.52.52,0,0,0,.45.36A1.68,1.68,0,0,0,47,16.88Z"/><path class="cls-2" d="M37.55,16.23l0,0,0,0a1.38,1.38,0,0,0,.26,0v0a.5.5,0,0,1,0-.12.69.69,0,0,1,.3-.69l.07.12a1.31,1.31,0,0,1,.19.75.5.5,0,0,1-.54.52,1.67,1.67,0,0,0-.07-.3A1.27,1.27,0,0,0,37.55,16.23Z"/><path class="cls-2" d="M46,16.28a1.25,1.25,0,0,1,.2-.75.75.75,0,0,1,.07-.12.71.71,0,0,1,.3.69.5.5,0,0,0,0,.12v0a1.29,1.29,0,0,0,.25,0l0,0,0,0a1,1,0,0,0-.18.27,1.11,1.11,0,0,0-.07.3A.51.51,0,0,1,46,16.28Z"/><path class="cls-3" d="M53.71,11.69A3.68,3.68,0,0,1,52.65,13a7.86,7.86,0,0,1-1.44.89l-.67.32-1,.44h0l-.34.15h0c-.34.16-.69.32-1,.49s-.54.3-.79.47a3.42,3.42,0,0,0-.6.48l0,0a1,1,0,0,0-.18.27,1.11,1.11,0,0,0-.07.3.51.51,0,0,1-.55-.52,1.25,1.25,0,0,1,.2-.75.75.75,0,0,1,.07-.12,3.29,3.29,0,0,1,1.23-1.14c.21-.13.43-.24.65-.35l.11-.05.22-.11.11,0,.07,0,.48-.21,1.23-.53.16-.07.42-.18.15-.07a5.14,5.14,0,0,0,1.37-.87,5,5,0,0,0,1.15-1.61c.1-.21.2-.43.29-.65l0,0A3.42,3.42,0,0,1,53.71,11.69Z"/><path class="cls-4" d="M50.71,16.73a1.77,1.77,0,0,0-.32-.59,1.82,1.82,0,0,0-.55-.42l.16-.05c.48-.19,1-.37,1.45-.58A5.62,5.62,0,0,0,54,13c.17-.25.33-.51.49-.76l.1-.17a.34.34,0,0,1,0,.12,2.61,2.61,0,0,1-.31,1.86,5.79,5.79,0,0,1-1.2,1.5,5.07,5.07,0,0,1-1.26.77c-.27.12-.56.22-.84.32Z"/><path class="cls-3" d="M49.9,16.42a.57.57,0,0,1-.08.13.75.75,0,0,1-.16.15l-.22.16a3.64,3.64,0,0,1-.39.23,4.71,4.71,0,0,1-1.66.5H47.3a2.52,2.52,0,0,1-1-.11h0L46,17.37h0l-.06,0a.73.73,0,0,1-.35-.83,1.21,1.21,0,0,1,.33-.5,1.57,1.57,0,0,0,0,.28.82.82,0,0,0,0,.31.52.52,0,0,0,.45.36,1.68,1.68,0,0,0,.67-.06l.27-.1c.18-.08.35-.17.53-.27h0l.08,0c.28-.15.56-.31.85-.44a1.39,1.39,0,0,1,.45-.14h.2a1.43,1.43,0,0,1,.29,0A.36.36,0,0,1,49.9,16.42Z"/><path class="cls-5" d="M43.74,22.69h-.29l-.19,0,.16,0c.11,0,.22,0,.33,0Z"/><path class="cls-5" d="M43.75,22.69c-.11,0-.22,0-.33,0l-.16,0,.19,0h.3Z"/><path class="cls-3" d="M50.65,17.6s0,.08,0,.12l0,.17,0,.05,0,0a3.16,3.16,0,0,1-1.47,1.69,5.72,5.72,0,0,1-1.68.66,12.12,12.12,0,0,1-2.95.3h0A12.22,12.22,0,0,1,43,20.55l-.24,0a6.68,6.68,0,0,1-.92-.2,3,3,0,0,1-.48-.16A2.83,2.83,0,0,1,41,20l0,0h0l0,0,0,0,0,0h0l0,0a2.64,2.64,0,0,0,.58-.4,3.13,3.13,0,0,0,.33-.31.44.44,0,0,0,.16.07,4.3,4.3,0,0,0,1,.21h.13l.36.05a5.49,5.49,0,0,0,.76,0,12.66,12.66,0,0,0,1.74-.07,7.16,7.16,0,0,0,1.6-.37,3.89,3.89,0,0,0,2-1.65,1.77,1.77,0,0,0,.23-.59A1.08,1.08,0,0,0,50,16a.1.1,0,0,1,0-.06,1.26,1.26,0,0,1,.49.54,2,2,0,0,1,.13.34A2.13,2.13,0,0,1,50.65,17.6Z"/><path class="cls-3" d="M38.34,16.28a.5.5,0,0,1-.54.52,1.67,1.67,0,0,0-.07-.3,1.27,1.27,0,0,0-.18-.27l0,0a3,3,0,0,0-.59-.48c-.26-.17-.52-.32-.8-.47l-.73-.36h0l-.28-.13h0l-.74-.34-1.23-.57A7.54,7.54,0,0,1,31.69,13a3.58,3.58,0,0,1-1.06-1.26,3.42,3.42,0,0,1-.22-2.17l0,0c.1.22.19.44.29.65a5,5,0,0,0,1.15,1.61,5.83,5.83,0,0,0,1.53.94l.32.14h0l.1,0,.65.28.73.32.48.21.07,0,.11,0,.22.11.11.05c.23.11.44.22.66.35a3.45,3.45,0,0,1,1.23,1.14l.07.12A1.31,1.31,0,0,1,38.34,16.28Z"/><path class="cls-4" d="M33.63,16.73a1.61,1.61,0,0,1,.32-.59,1.71,1.71,0,0,1,.55-.42l-.16-.05c-.49-.19-1-.37-1.46-.58A5.73,5.73,0,0,1,30.37,13c-.17-.25-.33-.51-.49-.76l-.1-.17,0,.12a2.66,2.66,0,0,0,.31,1.86,5.83,5.83,0,0,0,1.21,1.5,4.84,4.84,0,0,0,1.25.77c.28.12.56.22.85.32Z"/><path class="cls-3" d="M38.45,17.32l-.07.05h0l-.27.11a2,2,0,0,1-.59.11,3.25,3.25,0,0,1-.54,0,4.76,4.76,0,0,1-1.67-.5l-.39-.23h0l-.22-.16a.71.71,0,0,1-.15-.15.6.6,0,0,1-.09-.13.36.36,0,0,1,.25-.52,1.63,1.63,0,0,1,.31,0h.19a1.53,1.53,0,0,1,.29.07h0l.15.07c.29.13.58.29.86.44s.39.22.6.31l.28.1.2.05h0a1.68,1.68,0,0,0,.45,0,.53.53,0,0,0,.46-.36,1.09,1.09,0,0,0,0-.31,1.57,1.57,0,0,0,0-.28,1.1,1.1,0,0,1,.32.5A.71.71,0,0,1,38.45,17.32Z"/><path class="cls-5" d="M40.88,22.66h-.3l.34,0,.15,0Z"/><path class="cls-5" d="M41.07,22.64l-.15,0-.34,0h.3Z"/><path class="cls-5" d="M50.93,20.76a4.58,4.58,0,0,1-.87.71,6.86,6.86,0,0,1-2,.85l-.34.08a12.75,12.75,0,0,1-1.26.24,13.52,13.52,0,0,1-2.47.08h-.58l-.19,0h0c-.3,0-.67-.08-1.08-.15s-.79.12-1.09.15h0l-.19,0h-.57a13.63,13.63,0,0,1-2.48-.08q-.63-.09-1.26-.24l-.34-.08a6.68,6.68,0,0,1-1.95-.85,4.29,4.29,0,0,1-.87-.71.93.93,0,0,1-.21-.9c0-.14.06-.28.1-.42a.43.43,0,0,0,0-.05l.09-.28c.13.16.24.32.37.46a5.09,5.09,0,0,0,2,1.39l.25.11a8.77,8.77,0,0,0,1.24.35c.4.07.81.12,1.22.15l.78,0c.62,0,1.23,0,1.85-.1l.16,0h0l.44-.05.25,0,.19,0,.19,0,.24,0,.44.05h0l.17,0c.61.06,1.23.1,1.84.1l.78,0a11.62,11.62,0,0,0,1.22-.15,8.41,8.41,0,0,0,1.24-.35l.26-.11a5.16,5.16,0,0,0,2-1.39c.12-.14.23-.3.36-.46l.09.28a.43.43,0,0,0,0,.05c0,.14.07.28.11.42A.93.93,0,0,1,50.93,20.76Z"/><path class="cls-3" d="M33.69,17.6s0,.08,0,.12a1,1,0,0,0,0,.17v.05s0,0,0,0a3.36,3.36,0,0,0,.26.54,3.51,3.51,0,0,0,1.21,1.15,5.94,5.94,0,0,0,1.68.66,12.17,12.17,0,0,0,2.95.3h0a12.17,12.17,0,0,0,1.43-.08l.24,0a6.37,6.37,0,0,0,.92-.2,3.13,3.13,0,0,0,.49-.16L43.3,20l0,0h0l0,0,0,0-.06,0h0l0,0a3.21,3.21,0,0,1-.58-.4,2.33,2.33,0,0,1-.32-.31.63.63,0,0,1-.17.07,4.16,4.16,0,0,1-1,.21h-.13l-.37.05a5.34,5.34,0,0,1-.75,0,12.53,12.53,0,0,1-1.74-.07,7.12,7.12,0,0,1-1.61-.37,4,4,0,0,1-2-1.65,1.77,1.77,0,0,1-.23-.59,1.12,1.12,0,0,1,.21-.89l0-.06a1.15,1.15,0,0,0-.49.54,2,2,0,0,0-.14.34A2.12,2.12,0,0,0,33.69,17.6Z"/></g></g></svg>