<svg xmlns="http://www.w3.org/2000/svg" viewBox="0 0 18.32 16"><defs><style>.cls-1{fill:#fff;}.cls-2{fill:#1e1e1e;}.cls-3{fill:#fcd116;}.cls-4{fill:#003893;}.cls-5{fill:#ce1126;}</style></defs><g id="Capa_2" data-name="Capa 2"><g id="Capa_1-2" data-name="Capa 1"><path class="cls-1" d="M12.17,6.4h0l0,0Z"/><path class="cls-1" d="M12.74,5.93l-.2.17.21-.18Z"/><path class="cls-1" d="M12,12.77l.1,0a6.54,6.54,0,0,1-1.54.46l-.28,0-.44,0H9.38c-.22,0-.43,0-.64,0a5.4,5.4,0,0,1-.58-.09,6.76,6.76,0,0,1-1.52-.5,1.15,1.15,0,0,0,.27-.14.62.62,0,0,0,.18-.14,1,1,0,0,0,.27-1A1.24,1.24,0,0,0,7,10.9L7,10.85a.76.76,0,0,0-.09-.18A2.92,2.92,0,0,0,5.77,9.61c-.16-.09-.32-.18-.49-.26l-.08,0L5,9.24,5,9.2l0,0L4.57,9,4,8.78l-.32-.14a4.31,4.31,0,0,1-.09-1,7.25,7.25,0,0,1,.09-.8.37.37,0,0,1,.19-.28,2.55,2.55,0,0,1,.43-.23,4.77,4.77,0,0,1,1-.27A18.1,18.1,0,0,1,7.54,5.8c.88-.06,1.75-.07,2.62,0s1.67.07,2.49.17l-.36.3-.11.09,0,0-.65,0-.73,0q-1.35-.06-2.7,0a20.16,20.16,0,0,0-2.57.26,6.25,6.25,0,0,0-1,.24.84.84,0,0,0-.33.19.51.51,0,0,0,.23.16,3.58,3.58,0,0,0,.79.23c.37.07.74.12,1.12.17s.74.08,1.11.1.44,0,.66,0l.92,0h.36c.33,0,.66,0,1,0l1.28,0,.67-.07.86-.1.12,0a4.93,4.93,0,0,0,1-.24A1.51,1.51,0,0,0,14.57,7l.08-.08a1,1,0,0,0-.36-.2l.16-.09.36-.22a.92.92,0,0,1,.26.22.7.7,0,0,1,.12.35,5,5,0,0,1,0,1.5l-.23.1-.41.18L14,9l-.34.15-.05,0-.09,0-.16.08-.08,0-.49.26a2.92,2.92,0,0,0-1.09,1.06l-.09.18h0l-.06.05a1.33,1.33,0,0,0-.35.57,1,1,0,0,0,.37,1.08l.08,0A1.49,1.49,0,0,0,12,12.77Z"/><path class="cls-1" d="M6.89,11.6a.52.52,0,0,1-.24.59l-.05,0h0L6.16,12,6,11.91a1.13,1.13,0,0,0,.32,0,.39.39,0,0,0,.32-.26.78.78,0,0,0,0-.22.81.81,0,0,0,0-.19A.76.76,0,0,1,6.89,11.6Z"/><path class="cls-1" d="M17.51,3.41a.16.16,0,0,0-.18-.06l-.13,0a6.3,6.3,0,0,0-2.28,1.19L14.41,5,13,6.23h0l-.19.16-.18.15-.09.08h0l0,0A2,2,0,0,0,12.1,7a.53.53,0,0,1-.32.15h-.25l-.56,0h-.21a2.28,2.28,0,0,0-.63.13h.22l1.26-.06c.22,0,.43,0,.65-.06l.22,0L13,7l.48-.28.57-.34.51-.31.88-.52a6.83,6.83,0,0,0,.89-.63,6.88,6.88,0,0,0,1-1.08l.15-.22A.2.2,0,0,0,17.51,3.41Z"/><path class="cls-1" d="M5.8,0h.06a1.78,1.78,0,0,1,1,1.29,1.76,1.76,0,0,1-.1.88c-.1.27-.21.53-.32.79a2.28,2.28,0,0,0-.17.67,1.32,1.32,0,0,0,.14.81,2.2,2.2,0,0,0,.6.69l.22.15a1.11,1.11,0,0,1-.52,0,2,2,0,0,1-1-.61A1.29,1.29,0,0,1,5.4,3.33a4.69,4.69,0,0,1,.2-.6c.11-.29.24-.59.35-.88a2.06,2.06,0,0,0,.14-1A1.77,1.77,0,0,0,5.94.36C5.89.25,5.85.13,5.8,0Z"/><path class="cls-1" d="M8.28,5.16a1.21,1.21,0,0,1-.87-.36A1.71,1.71,0,0,1,7,3.1c.07-.23.16-.46.25-.69a2.06,2.06,0,0,0,.18-1c0-.14-.06-.28-.09-.42l0-.14h0a1.45,1.45,0,0,1,.75,1A1.82,1.82,0,0,1,8,2.63c-.07.24-.14.48-.2.72a2.12,2.12,0,0,0-.06.79,1.6,1.6,0,0,0,.45,1l0,0Z"/><path class="cls-2" d="M12.65,11.87l.19-.07v0a.64.64,0,0,0,0,.07v0a.5.5,0,0,1-.48.39h0l-.18,0-.22-.07h0l0,0a.53.53,0,0,1-.24-.59.85.85,0,0,1,.23-.35c0,.08,0,.14,0,.19a.78.78,0,0,0,0,.22.39.39,0,0,0,.32.26A1.05,1.05,0,0,0,12.65,11.87Z"/><path class="cls-2" d="M6,11.42l0,0H6l.18,0v0s0-.06,0-.09a.48.48,0,0,1,.21-.48l.05.08a1,1,0,0,1,.14.54.36.36,0,0,1-.39.35.8.8,0,0,0-.05-.21A.94.94,0,0,0,6,11.42Z"/><path class="cls-2" d="M12,11.46a.91.91,0,0,1,.13-.54.35.35,0,0,0,.05-.08.48.48,0,0,1,.21.48s0,.06,0,.09v0l.18,0h0l0,0a1,1,0,0,0-.13.18,1.6,1.6,0,0,0-.05.21A.34.34,0,0,1,12,11.46Z"/><path class="cls-3" d="M17.38,8.22a2.54,2.54,0,0,1-.74.89,5.52,5.52,0,0,1-1,.63l-.48.22-.68.31h0l-.23.11h0l-.71.34a6.32,6.32,0,0,0-.56.33,2.31,2.31,0,0,0-.42.34l0,0a1,1,0,0,0-.13.18,1.6,1.6,0,0,0-.05.21.34.34,0,0,1-.38-.35.91.91,0,0,1,.13-.54.35.35,0,0,0,.05-.08A2.39,2.39,0,0,1,13,10l.46-.25.08,0,.15-.07.08,0,.05,0,.33-.15L15,9.1l.11,0,.3-.12.1,0a4.07,4.07,0,0,0,1-.61,3.7,3.7,0,0,0,.81-1.14l.2-.45,0,0A2.4,2.4,0,0,1,17.38,8.22Z"/><path class="cls-4" d="M15.3,12a1.24,1.24,0,0,0-.25-.45,1.26,1.26,0,0,0-.42-.32l.12,0c.38-.14.75-.28,1.12-.44A4.37,4.37,0,0,0,17.8,9.11c.13-.2.25-.4.38-.59l.07-.13a.19.19,0,0,1,0,.09,2,2,0,0,1-.23,1.43,4.7,4.7,0,0,1-.93,1.15,3.65,3.65,0,0,1-1,.59c-.22.1-.44.17-.65.25Z"/><path class="cls-3" d="M14.71,11.55l-.06.09a.57.57,0,0,1-.11.11l-.16.11a2.4,2.4,0,0,1-.27.16,3.12,3.12,0,0,1-1.17.35h-.06a1.69,1.69,0,0,1-.74-.08h0l-.2-.08h0l0,0a.53.53,0,0,1-.24-.59.85.85,0,0,1,.23-.35c0,.08,0,.14,0,.19a.78.78,0,0,0,0,.22.39.39,0,0,0,.32.26,1.05,1.05,0,0,0,.47-.05l.19-.07c.13-.05.25-.12.37-.18h0l.06,0,.6-.32a1.11,1.11,0,0,1,.31-.09h.14a.5.5,0,0,1,.21,0A.25.25,0,0,1,14.71,11.55Z"/><path class="cls-3" d="M15.23,12.38a.28.28,0,0,1,0,.09s0,.08,0,.12v0l0,0A2.64,2.64,0,0,1,15,13a2.54,2.54,0,0,1-.85.81A4.45,4.45,0,0,1,13,14.3a8.54,8.54,0,0,1-2.08.21h0a9.87,9.87,0,0,1-1,0l-.17,0a5,5,0,0,1-.65-.13l-.34-.12a1.33,1.33,0,0,1-.24-.1h.09l0,0h0A2.31,2.31,0,0,0,9,13.72l.23-.22a.33.33,0,0,0,.11.05,3.26,3.26,0,0,0,.67.15h.1l.25,0a4.18,4.18,0,0,0,.53,0,8.44,8.44,0,0,0,1.23,0,5.31,5.31,0,0,0,1.13-.26,2.79,2.79,0,0,0,1.43-1.16,1,1,0,0,0,.16-.41.75.75,0,0,0-.14-.63l0,0a.78.78,0,0,1,.34.38,1.6,1.6,0,0,1,.1.23A1.54,1.54,0,0,1,15.23,12.38Z"/><path class="cls-3" d="M6.58,11.46a.36.36,0,0,1-.39.35.8.8,0,0,0-.05-.21A.94.94,0,0,0,6,11.42l0,0a2.31,2.31,0,0,0-.42-.34A5.15,5.15,0,0,0,5,10.72l-.51-.25h0l-.2-.09h0l-.52-.24-.87-.4a5.6,5.6,0,0,1-1-.63,2.54,2.54,0,0,1-.74-.89A2.33,2.33,0,0,1,1,6.7v0c.07.15.13.3.21.45A3.39,3.39,0,0,0,2,8.27a4.17,4.17,0,0,0,1.07.66L3.32,9h0l.07,0,.46.2.52.22.33.15,0,0,.08,0L5,9.75l.07,0,.47.25a2.44,2.44,0,0,1,.86.8l.05.08A1,1,0,0,1,6.58,11.46Z"/><path class="cls-2" d="M3.26,12.26a.36.36,0,0,1-.14,0H3.07l-.17-.05-.13,0-.49-.19a4,4,0,0,1-1-.62,4.67,4.67,0,0,1-.95-1.18A2.38,2.38,0,0,1,0,8.49a.68.68,0,0,1,0-.13v0A.49.49,0,0,1,.5,8H.55A.49.49,0,0,1,1,8.25l0,0,0,.06c0,.06.07.11.1.16l.24.37a3.57,3.57,0,0,0,1.55,1.29l.69.27.32.12,0,0,.05,0a.47.47,0,0,1,.33.43.49.49,0,0,1-.27.47.72.72,0,0,0-.24.18.7.7,0,0,0-.13.25A.49.49,0,0,1,3.26,12.26Z"/><path class="cls-4" d="M3.26,11.77a1.2,1.2,0,0,1,.22-.42,1.47,1.47,0,0,1,.39-.29l-.11,0c-.34-.13-.69-.26-1-.4A4,4,0,0,1,1,9.15C.85,9,.74,8.8.62,8.62L.55,8.5a.31.31,0,0,0,0,.08A1.8,1.8,0,0,0,.74,9.89a3.92,3.92,0,0,0,.85,1,3.51,3.51,0,0,0,.88.55l.6.23Z"/><path class="cls-3" d="M6.65,12.19l-.05,0h0l-.19.07a1.49,1.49,0,0,1-.42.08,1.53,1.53,0,0,1-.37,0A3.23,3.23,0,0,1,4.42,12l-.27-.16h0L4,11.75a.63.63,0,0,1-.12-.11l-.06-.09A.25.25,0,0,1,4,11.19a.55.55,0,0,1,.22,0h.13a.65.65,0,0,1,.2.05h0l.11,0c.21.1.41.21.6.32s.28.15.43.21l.19.07.15,0H6a1.13,1.13,0,0,0,.32,0,.39.39,0,0,0,.32-.26.78.78,0,0,0,0-.22.81.81,0,0,0,0-.19.76.76,0,0,1,.23.35A.52.52,0,0,1,6.65,12.19Z"/><path class="cls-5" d="M15.43,14.6a3.3,3.3,0,0,1-.61.51,4.83,4.83,0,0,1-1.38.59l-.24.06a6.78,6.78,0,0,1-.88.16,8.45,8.45,0,0,1-1.74.06H10l-.76-.11-.77.11H8a8.4,8.4,0,0,1-1.74-.06,6.63,6.63,0,0,1-.89-.16l-.24-.06a4.78,4.78,0,0,1-1.37-.59,3.07,3.07,0,0,1-.62-.51A.63.63,0,0,1,3,14c0-.1,0-.19.07-.29v0l.06-.2c.09.12.17.23.26.33a3.63,3.63,0,0,0,1.42,1l.18.07a5.11,5.11,0,0,0,.87.25,6,6,0,0,0,.86.1l.55,0c.43,0,.86,0,1.29-.07h.12l.31,0h.17l.14,0,.13,0h.17l.31,0H10c.43,0,.86.07,1.3.07l.55,0a6,6,0,0,0,.85-.1,5.11,5.11,0,0,0,.87-.25l.18-.07a3.73,3.73,0,0,0,1.43-1l.25-.33.06.2v0l.08.29A.66.66,0,0,1,15.43,14.6Z"/><path class="cls-3" d="M3.3,12.38s0,.06,0,.09l0,.12v0s0,0,0,0a2.64,2.64,0,0,0,.18.38,2.54,2.54,0,0,0,.85.81,4.52,4.52,0,0,0,1.19.46,8.46,8.46,0,0,0,2.07.21h0c.37,0,.71,0,1,0l.16,0a5,5,0,0,0,.65-.13l.34-.12a1.33,1.33,0,0,0,.24-.1H10l0,0h0a2.74,2.74,0,0,1-.41-.28l-.22-.22-.12.05a3.09,3.09,0,0,1-.67.15H8.39l-.26,0a4.16,4.16,0,0,1-.53,0,8.24,8.24,0,0,1-1.22,0,5.31,5.31,0,0,1-1.13-.26,2.77,2.77,0,0,1-1.44-1.16,1.21,1.21,0,0,1-.16-.41.79.79,0,0,1,.14-.63l0,0a.75.75,0,0,0-.35.38,1.6,1.6,0,0,0-.1.23A1.54,1.54,0,0,0,3.3,12.38Z"/></g></g></svg>