<?xml version="1.0" encoding="utf-8"?>
<!-- Generator: Adobe Illustrator 25.4.1, SVG Export Plug-In . SVG Version: 6.00 Build 0)  -->
<svg version="1.1" id="Capa_1" xmlns="http://www.w3.org/2000/svg" xmlns:xlink="http://www.w3.org/1999/xlink" x="0px" y="0px"
	 viewBox="0 0 1474.6 5803.1" style="enable-background:new 0 0 1474.6 5803.1;" xml:space="preserve">
<image style="overflow:visible;" width="209" height="374" xlink:href="1EA413E0.jpg"  transform="matrix(3.5278 0 0 3.5278 0 0)">
</image>
<image style="overflow:visible;" width="209" height="374" xlink:href="1EA413E1.jpg"  transform="matrix(3.5278 0 0 3.5278 0 1319.3789)">
</image>
<image style="overflow:visible;" width="209" height="374" xlink:href="1EA413E7.jpg"  transform="matrix(3.5278 0 0 3.5278 737.3 0)">
</image>
<image style="overflow:visible;" width="209" height="374" xlink:href="1EA413E2.jpg"  transform="matrix(3.5278 0 0 3.5278 737.3 1319.3789)">
</image>
<image style="overflow:visible;" width="209" height="374" xlink:href="1EA413E3.jpg"  transform="matrix(3.5278 0 0 3.5278 0 2638.7578)">
</image>
<image style="overflow:visible;" width="209" height="374" xlink:href="1EA413EE.jpg"  transform="matrix(3.5278 0 0 3.5278 0 3958.1367)">
</image>
<image style="overflow:visible;" width="209" height="374" xlink:href="1EA413EF.jpg"  transform="matrix(3.5278 0 0 3.5278 737.3 2638.7578)">
</image>
<image style="overflow:visible;" width="209" height="374" xlink:href="1EA413E4.jpg"  transform="matrix(3.5278 0 0 3.5278 737.3 3958.1367)">
</image>
<image style="overflow:visible;" width="209" height="374" xlink:href="1EA413E5.jpg"  transform="matrix(3.5278 0 0 3.5278 0 5249.2803)">
</image>
<image style="overflow:visible;" width="209" height="374" xlink:href="6DB6DFBF.jpg"  transform="matrix(3.5278 0 0 3.5278 0 6568.6592)">
</image>
<image style="overflow:visible;" width="209" height="374" xlink:href="6DB6DFBD.jpg"  transform="matrix(3.5278 0 0 3.5278 737.3 5249.2803)">
</image>
<image style="overflow:visible;" width="209" height="374" xlink:href="6DB6DFBB.jpg"  transform="matrix(3.5278 0 0 3.5278 737.3 6568.6592)">
</image>
</svg>
