<svg xmlns="http://www.w3.org/2000/svg" viewBox="0 0 433.99 109.04"><defs><style>.cls-1{fill:#f7c701;}.cls-2{fill:#fff;}</style></defs><g id="Capa_2" data-name="Capa 2"><g id="Capa_1-2" data-name="Capa 1"><path class="cls-1" d="M66,15.18a11.09,11.09,0,0,1-1.44,5.46,15.14,15.14,0,0,1-3.84,4.55,19,19,0,0,1-5.67,3.1,20.71,20.71,0,0,1-6.89,1.14,5.08,5.08,0,0,1-2.06-.34,5.56,5.56,0,0,1-1.68-1.32q-2.61,5.67-4.24,10.42a76.8,76.8,0,0,0-2.58,9.23,6.93,6.93,0,0,1-3.22-1.63,13,13,0,0,1-2.29-2.94c.35-.66.76-1.53,1.25-2.6l1.77-4c.69-1.58,1.5-3.47,2.41-5.67s2-4.77,3.25-7.72l1.46-3.54c.42-1,.78-1.95,1.09-2.83s.6-1.76.86-2.63.53-1.82.81-2.86a30.82,30.82,0,0,0-4.5,1.82A18,18,0,0,0,37.1,15a4.41,4.41,0,0,1-1-.94,9.42,9.42,0,0,1-.91-1.38,13.36,13.36,0,0,1-.73-1.53,4.74,4.74,0,0,1-.36-1.4,18.28,18.28,0,0,1,3.74-1.93,39,39,0,0,1,4.79-1.53A45.67,45.67,0,0,1,48,5.3a40,40,0,0,1,5.22-.36,17.89,17.89,0,0,1,5.36.75,12.33,12.33,0,0,1,4,2.11A9.2,9.2,0,0,1,65.13,11,9.64,9.64,0,0,1,66,15.18ZM56.76,8.94a27.15,27.15,0,0,0-4.06.32l.63.93a19.07,19.07,0,0,0-1.3,2c-.52.9-1.09,2-1.72,3.25S49,18.15,48.26,19.71l-2.37,4.94a32.89,32.89,0,0,0,7.38-.76A21,21,0,0,0,59,21.81a11.46,11.46,0,0,0,3.69-3.09A6.23,6.23,0,0,0,64,14.92a5.57,5.57,0,0,0-1.82-4.34A7.88,7.88,0,0,0,56.76,8.94Z"/><path class="cls-1" d="M69,45a6.6,6.6,0,0,1-4.73-2.6,9.21,9.21,0,0,1-1.77-5.82,15.9,15.9,0,0,1,.63-4.32A20.48,20.48,0,0,1,64.92,28a25.18,25.18,0,0,1,2.71-4A19.3,19.3,0,0,1,71,20.75a9.13,9.13,0,0,1,5.35-2.13,9.29,9.29,0,0,1,3.28,3.69,3.38,3.38,0,0,0,.47,0,3.39,3.39,0,0,1,.47,0q2.74,0,2.75,4.88a18.1,18.1,0,0,1-1.06,6.22,19,19,0,0,1-3,5.33,17.61,17.61,0,0,1-4.52,4A18,18,0,0,1,69,45Zm2.65-16.38a25,25,0,0,0-3,5.44,19.87,19.87,0,0,0-.89,2.75,11,11,0,0,0-.31,2.37,6.87,6.87,0,0,0,.42,2.39c.27.76.59,1.2.93,1.3A11.44,11.44,0,0,0,73.11,41a14,14,0,0,0,3.38-3.56,17.62,17.62,0,0,0,2.24-4.84,20,20,0,0,0,.81-5.77,11.69,11.69,0,0,0-.16-2.13,4.09,4.09,0,0,0-.52-1.35,11,11,0,0,0-4.08,2.18A21.47,21.47,0,0,0,71.68,28.65Z"/><path class="cls-1" d="M84.58,42.17c.17-1,.47-2.33.91-4s.94-3.39,1.53-5.25,1.22-3.72,1.87-5.59,1.3-3.55,1.93-5A24.15,24.15,0,0,1,92,19.79a7.27,7.27,0,0,1,1.15-1.54,8.29,8.29,0,0,1,1.51.37,11,11,0,0,1,1.5.62,10.38,10.38,0,0,1,1.3.75,4.47,4.47,0,0,1,.89.76,18.91,18.91,0,0,0-2.47,3.79A42.5,42.5,0,0,0,93.73,30q2.8-2.49,5-4.78a38.7,38.7,0,0,0,4-5.1,1.74,1.74,0,0,1,1.09-.26,4.16,4.16,0,0,1,1.4.24,1.71,1.71,0,0,1,.94.65,13.85,13.85,0,0,0-.94,4.94,6.89,6.89,0,0,0,.68,3.43,4.1,4.1,0,0,1-.7,1.2A15.07,15.07,0,0,1,103.77,32a8.21,8.21,0,0,1-2.5-2,8.41,8.41,0,0,1-1.61-2.78,35.36,35.36,0,0,0-4.16,3.35,18,18,0,0,0-2.94,3.64,22.19,22.19,0,0,0-2.08,4.6A63.34,63.34,0,0,0,88.84,45a3.93,3.93,0,0,1-1.12-.34,9.76,9.76,0,0,1-1.3-.7,9.92,9.92,0,0,1-1.17-.88A2.46,2.46,0,0,1,84.58,42.17Z"/><path class="cls-1" d="M140,20.12a4.44,4.44,0,0,1,1.74.39,3.05,3.05,0,0,1,1.33,1q-1.93,3.9-3.25,6.6t-2.29,4.76c-.64,1.37-1.21,2.59-1.69,3.66s-1,2.19-1.46,3.33q-1.25,2.91-2.34,5.9t-1.95,5.88c-.57,1.92-1.07,3.78-1.51,5.56s-.75,3.43-1,4.92a1.4,1.4,0,0,1-.93.21,1.28,1.28,0,0,1-.6-.16.61.61,0,0,1-.34-.36,1.39,1.39,0,0,0-.39-.52,1.53,1.53,0,0,0-.7-.37,1.21,1.21,0,0,1-.7-.49,2.31,2.31,0,0,1-.39-.86q.57-9.15,5.46-20.7a41.31,41.31,0,0,1-3.15,2.89,5.14,5.14,0,0,1-2,1.17,2.51,2.51,0,0,1-1.59-.75,10.19,10.19,0,0,1-1.61-1.85,11.64,11.64,0,0,1-1.25-2.37,6.44,6.44,0,0,1-.49-2.31,12.34,12.34,0,0,1,.73-3.61,32.87,32.87,0,0,1,1.82-4.5q4.15-8.27,12.37-9.78a5.66,5.66,0,0,1,1.48.44,6.07,6.07,0,0,1,2.45,2,3.05,3.05,0,0,1,.54,1.19,2.05,2.05,0,0,1,.73-.78A1.94,1.94,0,0,1,140,20.12ZM130.65,34q1.71-2.34,3-4.47c.86-1.42,1.59-2.69,2.18-3.8.69-1.28,1.3-2.5,1.82-3.64a2.07,2.07,0,0,0-.86-.31,5.58,5.58,0,0,0-1.27-.16,5.76,5.76,0,0,0-3.2,1.35,15.16,15.16,0,0,0-3.3,3.38,32,32,0,0,0-4,7.13A18.13,18.13,0,0,0,123.68,40c0,.24.16.36.47.36a30.4,30.4,0,0,0,3.43-2.86A28.92,28.92,0,0,0,130.65,34Z"/><path class="cls-1" d="M156.81,42.07A4.1,4.1,0,0,1,155.48,40a8.15,8.15,0,0,1-.34-2.13A6.09,6.09,0,0,1,155.4,36c-.14,0-.45.28-.93.83s-1,1.21-1.59,2L151.19,41c-.55.73-1,1.26-1.25,1.61a8.38,8.38,0,0,1-1.27,1.14,2.57,2.57,0,0,1-1,.47,5.88,5.88,0,0,1-1.75-.29,7,7,0,0,1-1.71-.81,6.07,6.07,0,0,1-1.41-1.26,4.11,4.11,0,0,1-.8-1.67c0-1,0-1.77.08-2.4a13.64,13.64,0,0,1,.33-2,44.35,44.35,0,0,1,1.38-4.48,49,49,0,0,1,2.11-4.91,34.07,34.07,0,0,1,2.68-4.52,13.55,13.55,0,0,1,3.14-3.31,9.32,9.32,0,0,1,1.09.08,6.9,6.9,0,0,1,1.28.29,10.46,10.46,0,0,1,1.25.49,3.16,3.16,0,0,1,1,.76A40.4,40.4,0,0,0,154,23.66a59.49,59.49,0,0,0-4.23,8.53,15.11,15.11,0,0,0-.63,1.66c-.24.73-.48,1.49-.73,2.29s-.44,1.58-.59,2.34a9.36,9.36,0,0,0-.24,1.82,1.22,1.22,0,0,0,.13.62,2,2,0,0,0,.24.32,6.06,6.06,0,0,0,2-1.72c.8-.94,1.91-2.37,3.33-4.32.35-.48.75-1,1.22-1.66s.95-1.29,1.43-2,1-1.45,1.38-2.21A15.69,15.69,0,0,0,158.37,27c.13-.42.32-.91.54-1.48s.5-1.17.83-1.8a19.53,19.53,0,0,1,1.15-1.89,10.36,10.36,0,0,1,1.53-1.8,7.08,7.08,0,0,1,1.46.16,11,11,0,0,1,1.48.39,6.67,6.67,0,0,1,1.22.52,2.57,2.57,0,0,1,.78.6c-.62,1.52-1.32,3-2.08,4.52s-1.47,3-2.13,4.39a37.42,37.42,0,0,0-1.66,4.29,13.81,13.81,0,0,0-.68,4.16A8.82,8.82,0,0,0,161,41a9.45,9.45,0,0,0,.39,1.35,9.87,9.87,0,0,0,.39.91,1.49,1.49,0,0,1,.18.63s0,.08-.1.15a.14.14,0,0,1-.1.06,3.91,3.91,0,0,1-.94-.16,10.21,10.21,0,0,1-1.27-.44c-.47-.19-.94-.41-1.41-.65A12.07,12.07,0,0,1,156.81,42.07Z"/><path class="cls-1" d="M186.71,21.68a17.71,17.71,0,0,1-1.15,5.54,12.08,12.08,0,0,1-2.68,4.06,19.23,19.23,0,0,1-4.23,3.14,46.57,46.57,0,0,1-5.83,2.71c0,.21,0,.42,0,.65s0,.46,0,.7a9.71,9.71,0,0,0,.1,1.4,5.34,5.34,0,0,0,.37,1.36,2.51,2.51,0,0,0,.73,1,1.79,1.79,0,0,0,1.19.39,6.6,6.6,0,0,0,2.76-.62,14.34,14.34,0,0,0,2.57-1.54,19.64,19.64,0,0,0,2.29-2c.71-.71,1.34-1.36,1.9-1.95a10.41,10.41,0,0,1,.88.88,24.87,24.87,0,0,1-5.12,5.17,14.54,14.54,0,0,1-5.28,2.63,8.56,8.56,0,0,1-5.59-2.63,7.67,7.67,0,0,1-2-5.33,16.56,16.56,0,0,1,.6-4.34,21.49,21.49,0,0,1,1.66-4.26,24.42,24.42,0,0,1,2.5-3.88,20.12,20.12,0,0,1,3.07-3.17,14.67,14.67,0,0,1,3.38-2.13,8.38,8.38,0,0,1,3.45-.78A7,7,0,0,1,186.71,21.68Zm-3.59,1.72a7.72,7.72,0,0,0-2.91,1.14,12.39,12.39,0,0,0-2.84,2.5A20,20,0,0,0,175,30.68a21.21,21.21,0,0,0-1.71,4.47A23,23,0,0,0,180.15,30,10.66,10.66,0,0,0,183.12,23.4Z"/><path class="cls-1" d="M201.42,39.88a27,27,0,0,1,1.09-6.42q1.1-4.12,3.07-9.64Q208.8,15,211.64,9.18A46.08,46.08,0,0,1,217.18.05a6.41,6.41,0,0,1,1.53.52c.61.28,1.21.58,1.79.91a14.57,14.57,0,0,1,1.59,1,3.87,3.87,0,0,1,.91.83,64.13,64.13,0,0,0-7.12,10.29,84.5,84.5,0,0,0-5.62,12.64,101.38,101.38,0,0,0-3.33,11.05,37.59,37.59,0,0,0-1.14,8.19v1.09a2,2,0,0,0,.05.42,3.91,3.91,0,0,1-1.25-.37,1.32,1.32,0,0,1-.67-.62,2.72,2.72,0,0,0-.58-.75,5.91,5.91,0,0,0-.83-.76,2.8,2.8,0,0,1-.78-1.64A13,13,0,0,1,201.42,39.88Z"/><path class="cls-1" d="M231.48,22.2a4.67,4.67,0,0,1,1.22.19,6.32,6.32,0,0,1,1.27.46,5.3,5.3,0,0,1,1,.6q.39.32.39.57-1,2.19-1.92,4.4c-.59,1.47-1.09,2.88-1.51,4.24a38.35,38.35,0,0,0-1,3.79,16.28,16.28,0,0,0-.34,3.07,8.23,8.23,0,0,0,.31,2.42,2.38,2.38,0,0,0,1,1.38,5.38,5.38,0,0,1-1.61.67,6.76,6.76,0,0,1-1.77.26q-2.81,0-2.8-3.85a24.59,24.59,0,0,1,2-8.11,31.33,31.33,0,0,1-2.39,4.48,31,31,0,0,1-2.76,3.7,16.16,16.16,0,0,1-2.83,2.62,6.55,6.55,0,0,1-2.63,1.21A3.63,3.63,0,0,1,214,42.55a7.77,7.77,0,0,1-1.19-4.46,17,17,0,0,1,1.25-6.16,27.64,27.64,0,0,1,3.19-6,23.16,23.16,0,0,1,4.24-4.62,7.16,7.16,0,0,1,4.42-1.85,3.94,3.94,0,0,1,1.17.62,9,9,0,0,1,1.25,1.09,8.14,8.14,0,0,1,1,1.27,2.66,2.66,0,0,1,.47,1.12,9.37,9.37,0,0,0-4.29,2,21.18,21.18,0,0,0-4,4.12,23.86,23.86,0,0,0-2.94,5.17A13.43,13.43,0,0,0,217.44,40a1.17,1.17,0,0,0,.72,1.25,7.24,7.24,0,0,0,3.49-2.58,49.66,49.66,0,0,0,4.78-7l1.17-2.08c.44-.76.88-1.56,1.33-2.39s.89-1.68,1.32-2.53S231.09,23,231.48,22.2Z"/><path class="cls-1" d="M250.66,34.06a14.09,14.09,0,0,1,1.23-5.75,17.48,17.48,0,0,1,3.22-4.94,16.49,16.49,0,0,1,4.58-3.48A11.53,11.53,0,0,1,265,18.56a5.87,5.87,0,0,1,4.16,1.36,5,5,0,0,1,1.45,3.84,7.85,7.85,0,0,1-.34,2.32,8.47,8.47,0,0,1-.88,2,5.07,5.07,0,0,1-1.27,1.43,2.49,2.49,0,0,1-1.46.55,2.44,2.44,0,0,1-1.27-.39,3.26,3.26,0,0,1-1.07-1c2.32-2.11,3.48-4,3.48-5.77,0-1-.4-1.51-1.19-1.51a5.19,5.19,0,0,0-2.6,1,14.9,14.9,0,0,0-3,2.6,17.78,17.78,0,0,0-3.4,5.54,17.59,17.59,0,0,0-1.17,6.37q0,4.22,1.87,5a9.07,9.07,0,0,0,1.82-.47,18.27,18.27,0,0,0,2.23-1c.8-.4,1.62-.86,2.47-1.38s1.68-1.07,2.47-1.66a1.31,1.31,0,0,1,.37.47,1.35,1.35,0,0,1,.15.57,19.06,19.06,0,0,1-2,2.13,21.51,21.51,0,0,1-2.4,1.9A22.14,22.14,0,0,1,261,44a7.69,7.69,0,0,1-2.06.75,7.37,7.37,0,0,1-3.22-1.07,9.35,9.35,0,0,1-2.63-2.36A12,12,0,0,1,251.31,38,11.91,11.91,0,0,1,250.66,34.06Z"/><path class="cls-1" d="M290.13,22.2a4.55,4.55,0,0,1,1.22.19,6.41,6.41,0,0,1,1.28.46,5.3,5.3,0,0,1,1,.6q.39.32.39.57c-.69,1.46-1.34,2.93-1.92,4.4s-1.1,2.88-1.51,4.24a33.46,33.46,0,0,0-1,3.79,16.28,16.28,0,0,0-.34,3.07,7.91,7.91,0,0,0,.31,2.42,2.34,2.34,0,0,0,1,1.38A5.49,5.49,0,0,1,289,44a6.76,6.76,0,0,1-1.77.26q-2.81,0-2.81-3.85a24.4,24.4,0,0,1,2-8.11,32.17,32.17,0,0,1-5.15,8.18,16.52,16.52,0,0,1-2.83,2.62,6.61,6.61,0,0,1-2.63,1.21,3.63,3.63,0,0,1-3.12-1.75,7.7,7.7,0,0,1-1.2-4.46,17.18,17.18,0,0,1,1.25-6.16,27.67,27.67,0,0,1,3.2-6,22.87,22.87,0,0,1,4.24-4.62,7.14,7.14,0,0,1,4.42-1.85,4.19,4.19,0,0,1,1.17.62A9.66,9.66,0,0,1,287,21.16a9.52,9.52,0,0,1,1,1.27,2.8,2.8,0,0,1,.47,1.12,9.28,9.28,0,0,0-4.29,2,21.22,21.22,0,0,0-4,4.12,24.24,24.24,0,0,0-2.93,5.17A13.27,13.27,0,0,0,276.09,40a1.17,1.17,0,0,0,.73,1.25,7.22,7.22,0,0,0,3.48-2.58,49.56,49.56,0,0,0,4.79-7c.34-.63.73-1.32,1.17-2.08s.87-1.56,1.32-2.39.9-1.68,1.33-2.53S289.75,23,290.13,22.2Z"/><path class="cls-1" d="M296.58,39.88a27,27,0,0,1,1.09-6.42q1.09-4.12,3.07-9.64Q304,15,306.8,9.18A46.58,46.58,0,0,1,312.33.05a6.32,6.32,0,0,1,1.54.52c.61.28,1.2.58,1.79.91a14.57,14.57,0,0,1,1.59,1,3.87,3.87,0,0,1,.91.83A64.13,64.13,0,0,0,311,13.62a84.5,84.5,0,0,0-5.62,12.64,101.38,101.38,0,0,0-3.33,11.05A37.59,37.59,0,0,0,301,45.5v1.09A1.51,1.51,0,0,0,301,47a3.91,3.91,0,0,1-1.25-.37,1.35,1.35,0,0,1-.68-.62,2.84,2.84,0,0,0-.57-.75,5.91,5.91,0,0,0-.83-.76,2.8,2.8,0,0,1-.78-1.64A13,13,0,0,1,296.58,39.88Z"/><path class="cls-1" d="M309,39.73a11.64,11.64,0,0,1,.08-1.17c.05-.47.15-1.09.29-1.87s.32-1.73.54-2.84.52-2.44.86-4c.07-.35.23-.9.47-1.67a19.44,19.44,0,0,1,1-2.41,15.55,15.55,0,0,1,1.46-2.47,5.31,5.31,0,0,1,2.05-1.77A9.19,9.19,0,0,1,318,22.59,8.15,8.15,0,0,1,320.5,25a17.36,17.36,0,0,0-2,2.7A26.71,26.71,0,0,0,317,30.47c-.43,1-.83,2-1.2,3s-.77,2.13-1.22,3.27c-.38,1-.73,2-1,3a11.58,11.58,0,0,0-.52,2.68c0,.63,0,1.07,0,1.33s-.12.39-.29.39a2.89,2.89,0,0,1-.83-.26,5.11,5.11,0,0,1-1.28-.81,5.76,5.76,0,0,1-1.17-1.38A3.68,3.68,0,0,1,309,39.73Zm9.94-22.57a4.47,4.47,0,0,1,.15-.94,2,2,0,0,1-.44-.78,2.82,2.82,0,0,1-.18-.93,8.18,8.18,0,0,1,.13-1.28c.08-.53.2-1.11.34-1.74s.31-1.27.52-2,.41-1.29.62-1.84a4.59,4.59,0,0,1,1.53.33,11.55,11.55,0,0,1,1.85.89,12.76,12.76,0,0,1,1.72,1.19,7.43,7.43,0,0,1,1.19,1.23c-.38.38-.88.91-1.51,1.58s-1.23,1.39-1.82,2.13-1.12,1.45-1.61,2.11a11.78,11.78,0,0,0-.93,1.4,2,2,0,0,1-1.1-.54A1.23,1.23,0,0,1,318.89,17.16Z"/><path class="cls-1" d="M332.51,18.93a5.92,5.92,0,0,1,2.39.62,9,9,0,0,1,2.39,1.61c-.17-1.38-.39-2.69-.65-3.92a25.6,25.6,0,0,0-1.14-3.82,38,38,0,0,0-2-4.32q-1.25-2.34-3.12-5.36a3.48,3.48,0,0,1,.7-1.09,9.38,9.38,0,0,1,1.25-1.17,12.12,12.12,0,0,1,1.45-1A4.38,4.38,0,0,1,335.21,0,20.82,20.82,0,0,1,338,4a37.29,37.29,0,0,1,2.29,5.2A36.56,36.56,0,0,1,341.79,15a30.68,30.68,0,0,1,.55,5.66,27.1,27.1,0,0,1-.6,5.57,35.17,35.17,0,0,1-1.66,5.59A40.37,40.37,0,0,1,337.61,37a28.6,28.6,0,0,1-3.05,4.37,18,18,0,0,1-3.4,3.15A9.09,9.09,0,0,1,327.62,46a9,9,0,0,1-5.48-2.31,7.06,7.06,0,0,1-1.9-5.23,15.41,15.41,0,0,1,.54-3.85,27.9,27.9,0,0,1,1.46-4.13,32.85,32.85,0,0,1,2.13-4A27.08,27.08,0,0,1,327,23a21.27,21.27,0,0,1,2.78-2.65A7.22,7.22,0,0,1,332.51,18.93Zm-5.3,25a8.77,8.77,0,0,0,3.64-2.76,25.21,25.21,0,0,0,3.27-5A33.92,33.92,0,0,0,336.49,30a24.24,24.24,0,0,0,.91-6.37V22.52a2,2,0,0,0,0-.42,9.88,9.88,0,0,0-2.66,1.77,29.67,29.67,0,0,0-2.8,2.88,34.13,34.13,0,0,0-2.66,3.57Q328,32.24,327,34.16a25,25,0,0,0-1.56,3.7,10.36,10.36,0,0,0-.57,3.12C324.87,42.71,325.65,43.7,327.21,43.94Z"/><path class="cls-1" d="M361.63,22.2a4.61,4.61,0,0,1,1.22.19,6.65,6.65,0,0,1,1.28.46,5.3,5.3,0,0,1,1,.6q.39.32.39.57-1.05,2.19-1.93,4.4c-.59,1.47-1.09,2.88-1.5,4.24a35.92,35.92,0,0,0-1,3.79,17,17,0,0,0-.33,3.07,7.91,7.91,0,0,0,.31,2.42,2.34,2.34,0,0,0,1,1.38,5.61,5.61,0,0,1-1.61.67,6.76,6.76,0,0,1-1.77.26q-2.81,0-2.81-3.85a24.4,24.4,0,0,1,2-8.11,31.38,31.38,0,0,1-2.4,4.48,32.05,32.05,0,0,1-2.75,3.7,16.2,16.2,0,0,1-2.84,2.62,6.58,6.58,0,0,1-2.62,1.21,3.62,3.62,0,0,1-3.12-1.75,7.7,7.7,0,0,1-1.2-4.46,17.18,17.18,0,0,1,1.25-6.16,27.67,27.67,0,0,1,3.2-6,22.87,22.87,0,0,1,4.24-4.62,7.11,7.11,0,0,1,4.42-1.85,4.19,4.19,0,0,1,1.17.62,9.59,9.59,0,0,1,1.24,1.09,8.87,8.87,0,0,1,1,1.27,3,3,0,0,1,.47,1.12,9.28,9.28,0,0,0-4.29,2,21.22,21.22,0,0,0-4,4.12,24.72,24.72,0,0,0-2.94,5.17A13.43,13.43,0,0,0,347.59,40a1.17,1.17,0,0,0,.73,1.25,7.26,7.26,0,0,0,3.48-2.58,50.43,50.43,0,0,0,4.79-7c.34-.63.73-1.32,1.17-2.08s.87-1.56,1.32-2.39.89-1.68,1.33-2.53S361.25,23,361.63,22.2Z"/><path class="cls-1" d="M379.26,18.93a5.92,5.92,0,0,1,2.39.62A9,9,0,0,1,384,21.16c-.17-1.38-.39-2.69-.65-3.92a25.6,25.6,0,0,0-1.14-3.82,39.76,39.76,0,0,0-2-4.32Q379,6.76,377.13,3.74a3.3,3.3,0,0,1,.7-1.09,9.38,9.38,0,0,1,1.25-1.17,11.37,11.37,0,0,1,1.45-1A4.3,4.3,0,0,1,382,0a20.82,20.82,0,0,1,2.76,4A38.51,38.51,0,0,1,387,9.23,37.68,37.68,0,0,1,388.54,15a31.57,31.57,0,0,1,.55,5.66,27.1,27.1,0,0,1-.6,5.57,35.21,35.21,0,0,1-1.67,5.59A37.86,37.86,0,0,1,384.35,37a28.56,28.56,0,0,1-3,4.37,18.05,18.05,0,0,1-3.41,3.15,6.27,6.27,0,0,1-9-.78,7.1,7.1,0,0,1-1.9-5.23,15.46,15.46,0,0,1,.55-3.85A27.9,27.9,0,0,1,369,30.5a31.52,31.52,0,0,1,2.13-4,26.19,26.19,0,0,1,2.6-3.51,20.66,20.66,0,0,1,2.78-2.65A7.22,7.22,0,0,1,379.26,18.93Zm-5.31,25a8.65,8.65,0,0,0,3.64-2.76,24.81,24.81,0,0,0,3.28-5A33.18,33.18,0,0,0,383.23,30a23.86,23.86,0,0,0,.92-6.37V22.52a1.52,1.52,0,0,0-.06-.42,10,10,0,0,0-2.65,1.77,30.94,30.94,0,0,0-2.81,2.88A34.07,34.07,0,0,0,376,30.32a42.25,42.25,0,0,0-2.23,3.84,25,25,0,0,0-1.56,3.7,10.1,10.1,0,0,0-.58,3.12C371.61,42.71,372.39,43.7,374,43.94Z"/><path class="cls-2" d="M25.82,69.19q3,3.3,3,9.07V95.21H20V79.46a6.36,6.36,0,0,0-1.51-4.53,5.29,5.29,0,0,0-4.05-1.61,5.3,5.3,0,0,0-4.06,1.61,6.36,6.36,0,0,0-1.51,4.53V95.21H0v-29H8.89V70a9.47,9.47,0,0,1,3.64-3,11.66,11.66,0,0,1,5.15-1.12A10.51,10.51,0,0,1,25.82,69.19Z"/><path class="cls-2" d="M40.59,93.81a13.34,13.34,0,0,1-5.36-5.2,15.57,15.57,0,0,1-1.95-7.91,15.36,15.36,0,0,1,2-7.87,13.38,13.38,0,0,1,5.4-5.23,17.2,17.2,0,0,1,15.4,0,13.38,13.38,0,0,1,5.4,5.23,16.58,16.58,0,0,1,0,15.75A13.66,13.66,0,0,1,56,93.81a16.37,16.37,0,0,1-7.72,1.82A16,16,0,0,1,40.59,93.81Zm12-7.75a7.46,7.46,0,0,0,1.79-5.36,7.57,7.57,0,0,0-1.74-5.35,5.92,5.92,0,0,0-8.61,0,7.65,7.65,0,0,0-1.71,5.38A7.71,7.71,0,0,0,44,86.06a5.45,5.45,0,0,0,4.24,1.87A5.8,5.8,0,0,0,52.6,86.06Z"/><path class="cls-2" d="M84.24,94.33a11.59,11.59,0,0,1-4.68-3.56,9.35,9.35,0,0,1-1.93-5.07h8.79a3.37,3.37,0,0,0,1.41,2.44,5,5,0,0,0,3.06.94,4.43,4.43,0,0,0,2.58-.65,2,2,0,0,0,.91-1.69,2,2,0,0,0-1.3-1.85,26.65,26.65,0,0,0-4.21-1.33A38.12,38.12,0,0,1,83.67,82a9,9,0,0,1-3.59-2.55,6.91,6.91,0,0,1-1.51-4.7A8,8,0,0,1,80,70.23,9.24,9.24,0,0,1,84,67a15.51,15.51,0,0,1,6.37-1.2q5.46,0,8.61,2.7a10.53,10.53,0,0,1,3.61,7.18H94.38a3.54,3.54,0,0,0-1.33-2.39,4.58,4.58,0,0,0-2.94-.89,4.06,4.06,0,0,0-2.39.6,1.93,1.93,0,0,0-.83,1.64,2,2,0,0,0,1.33,1.87,21.11,21.11,0,0,0,4.13,1.25,43.6,43.6,0,0,1,5.25,1.64,9,9,0,0,1,3.56,2.6,7.28,7.28,0,0,1,1.59,4.81,7.67,7.67,0,0,1-1.43,4.55,9.42,9.42,0,0,1-4.11,3.14A15.53,15.53,0,0,1,91,95.63,16.6,16.6,0,0,1,84.24,94.33Z"/><path class="cls-2" d="M135.41,82.84H115.28A6.05,6.05,0,0,0,117,87a5.35,5.35,0,0,0,3.77,1.43,4.67,4.67,0,0,0,4.63-2.81h9.47a13.09,13.09,0,0,1-7.39,8.74,15.21,15.21,0,0,1-6.39,1.3,15.62,15.62,0,0,1-7.6-1.82,13.07,13.07,0,0,1-5.2-5.2,17.73,17.73,0,0,1,0-15.81,12.76,12.76,0,0,1,5.17-5.2,15.73,15.73,0,0,1,7.65-1.82,15.45,15.45,0,0,1,7.48,1.77,12.7,12.7,0,0,1,5.13,5,15.33,15.33,0,0,1,1.84,7.65A23.75,23.75,0,0,1,135.41,82.84Zm-9-4.94a4.56,4.56,0,0,0-1.56-3.64,6.19,6.19,0,0,0-7.67-.06,5.84,5.84,0,0,0-1.9,3.7Z"/><path class="cls-2" d="M151.92,61.8a4.46,4.46,0,0,1-1.49-3.4,4.52,4.52,0,0,1,1.49-3.46,5.91,5.91,0,0,1,7.59,0A4.52,4.52,0,0,1,161,58.4a4.45,4.45,0,0,1-1.48,3.4,5.91,5.91,0,0,1-7.59,0Zm8.24,4.4v29h-8.89v-29Z"/><path class="cls-2" d="M212.24,69.16q3.19,3.27,3.19,9.1V95.21h-8.84V79.46a6,6,0,0,0-1.48-4.35,6.21,6.21,0,0,0-8.16,0,6,6,0,0,0-1.48,4.35V95.21h-8.84V79.46a6,6,0,0,0-1.49-4.35,6.21,6.21,0,0,0-8.16,0,6,6,0,0,0-1.48,4.35V95.21h-8.89v-29h8.89v3.64A9.47,9.47,0,0,1,179,67,11.16,11.16,0,0,1,184,65.88a11.94,11.94,0,0,1,5.85,1.41,10,10,0,0,1,4,4,11.85,11.85,0,0,1,4.11-3.9,11.14,11.14,0,0,1,5.67-1.51A11.52,11.52,0,0,1,212.24,69.16Z"/><path class="cls-2" d="M234.15,67a11.05,11.05,0,0,1,5.36-1.25A12,12,0,0,1,246,67.6a12.63,12.63,0,0,1,4.6,5.2,17.28,17.28,0,0,1,1.69,7.85,17.47,17.47,0,0,1-1.69,7.88,12.78,12.78,0,0,1-4.6,5.25,11.9,11.9,0,0,1-6.5,1.85,11.07,11.07,0,0,1-5.33-1.25,9.76,9.76,0,0,1-3.61-3.22V109h-8.9V66.2h8.9v4.1A9.6,9.6,0,0,1,234.15,67Zm7.26,8.4a6.08,6.08,0,0,0-4.55-1.9,6,6,0,0,0-4.5,1.92,8.39,8.39,0,0,0,0,10.51,6.22,6.22,0,0,0,9,0,7.3,7.3,0,0,0,1.87-5.28A7.15,7.15,0,0,0,241.41,75.43Z"/><path class="cls-2" d="M269.77,67.26a10.06,10.06,0,0,1,5.2-1.38V75.3h-2.44a7.45,7.45,0,0,0-5,1.43q-1.67,1.42-1.67,5V95.21H257v-29h8.89V71A11.79,11.79,0,0,1,269.77,67.26Z"/><path class="cls-2" d="M284.77,93.81a13.38,13.38,0,0,1-5.35-5.2,16.86,16.86,0,0,1,0-15.78,13.41,13.41,0,0,1,5.41-5.23,17.18,17.18,0,0,1,15.39,0,13.41,13.41,0,0,1,5.41,5.23,16.58,16.58,0,0,1,0,15.75,13.66,13.66,0,0,1-5.46,5.23,16.39,16.39,0,0,1-7.73,1.82A16.06,16.06,0,0,1,284.77,93.81Zm12-7.75a7.46,7.46,0,0,0,1.79-5.36,7.57,7.57,0,0,0-1.74-5.35,5.92,5.92,0,0,0-8.61,0,7.65,7.65,0,0,0-1.71,5.38,7.71,7.71,0,0,0,1.69,5.36,5.45,5.45,0,0,0,4.23,1.87A5.8,5.8,0,0,0,296.79,86.06Z"/><path class="cls-2" d="M325.41,86.89,331.7,66.2h9.47l-10.3,29h-11l-10.3-29h9.52Z"/><path class="cls-2" d="M345.56,61.8a4.45,4.45,0,0,1-1.48-3.4,4.52,4.52,0,0,1,1.48-3.46,5.38,5.38,0,0,1,3.82-1.38,5.29,5.29,0,0,1,3.77,1.38,4.52,4.52,0,0,1,1.49,3.46,4.46,4.46,0,0,1-1.49,3.4,5.29,5.29,0,0,1-3.77,1.38A5.38,5.38,0,0,1,345.56,61.8Zm8.24,4.4v29h-8.89v-29Z"/><path class="cls-2" d="M365.3,94.33a11.59,11.59,0,0,1-4.68-3.56,9.35,9.35,0,0,1-1.93-5.07h8.79a3.36,3.36,0,0,0,1.4,2.44,5,5,0,0,0,3.07.94,4.43,4.43,0,0,0,2.58-.65,2,2,0,0,0,.91-1.69,2,2,0,0,0-1.3-1.85,26.85,26.85,0,0,0-4.22-1.33,38.55,38.55,0,0,1-5.2-1.53,9,9,0,0,1-3.58-2.55,6.91,6.91,0,0,1-1.51-4.7A8,8,0,0,1,361,70.23,9.19,9.19,0,0,1,365.06,67a15.51,15.51,0,0,1,6.37-1.2q5.46,0,8.61,2.7a10.57,10.57,0,0,1,3.61,7.18h-8.21a3.58,3.58,0,0,0-1.33-2.39,4.62,4.62,0,0,0-2.94-.89,4,4,0,0,0-2.39.6,1.93,1.93,0,0,0-.83,1.64,2,2,0,0,0,1.32,1.87,21.48,21.48,0,0,0,4.14,1.25,43.6,43.6,0,0,1,5.25,1.64,9,9,0,0,1,3.56,2.6,7.39,7.39,0,0,1,1.59,4.81,7.67,7.67,0,0,1-1.43,4.55,9.54,9.54,0,0,1-4.11,3.14,15.6,15.6,0,0,1-6.21,1.15A16.57,16.57,0,0,1,365.3,94.33Z"/><path class="cls-2" d="M389.19,72.8a12.56,12.56,0,0,1,4.6-5.2,12,12,0,0,1,6.5-1.82A11.16,11.16,0,0,1,405.67,67a9.11,9.11,0,0,1,3.56,3.27V66.2h8.9v29h-8.9V91.1a9.49,9.49,0,0,1-3.61,3.28,11.19,11.19,0,0,1-5.38,1.25,11.8,11.8,0,0,1-6.45-1.85,12.71,12.71,0,0,1-4.6-5.25,17.47,17.47,0,0,1-1.69-7.88A17.28,17.28,0,0,1,389.19,72.8Zm18.2,2.65a6.26,6.26,0,0,0-9,0,7.15,7.15,0,0,0-1.84,5.22,7.37,7.37,0,0,0,1.84,5.28,6.2,6.2,0,0,0,9,0,8.42,8.42,0,0,0,0-10.51Z"/><path class="cls-2" d="M424.91,94.25a4.45,4.45,0,0,1-1.48-3.41,4.6,4.6,0,0,1,1.48-3.48,5.31,5.31,0,0,1,3.82-1.4,5.22,5.22,0,0,1,3.77,1.4A4.61,4.61,0,0,1,434,90.84a4.46,4.46,0,0,1-1.49,3.41,5.29,5.29,0,0,1-3.77,1.38A5.38,5.38,0,0,1,424.91,94.25Z"/></g></g></svg>