<?xml version="1.0" encoding="utf-8"?>
<!-- Generator: Adobe Illustrator 25.4.1, SVG Export Plug-In . SVG Version: 6.00 Build 0)  -->
<svg version="1.1" id="Capa_1" xmlns="http://www.w3.org/2000/svg" xmlns:xlink="http://www.w3.org/1999/xlink" x="0px" y="0px"
	 viewBox="0 0 267 109" style="enable-background:new 0 0 267 109;" xml:space="preserve">
<style type="text/css">
	.st0{fill:#003893;}
	.st1{fill:#FFFFFF;}
</style>
<path class="st0" d="M257.5,52.4H9.5c-5.2,0-9.4-4.2-9.4-9.4V13.4C0.1,8.2,4.3,4,9.5,4h248c5.2,0,9.4,4.2,9.4,9.4V43
	C267,48.2,262.7,52.4,257.5,52.4z"/>
<path class="st1" d="M28,39.3l5.5-25.6h2.9l-4.9,23h7.3l-0.5,2.6H28z"/>
<path class="st1" d="M41.3,35c0-0.5,0.1-1.2,0.2-1.8l1.6-7.4c0.8-3.6,2.7-5.3,5.8-5.3c3.2,0,5.2,1.7,5.2,4.7c0,0.7-0.1,1.3-0.2,1.8
	l-1.6,7.4c-0.7,3.5-2.7,5.3-5.8,5.3C43.4,39.6,41.3,37.9,41.3,35z M49.5,34.2l1.7-7.8c0.1-0.4,0.1-0.8,0.1-1.2
	c0-1.5-0.8-2.3-2.5-2.3c-1.5,0-2.5,1-2.9,2.9l-1.7,7.8c-0.1,0.5-0.1,0.9-0.1,1.2c0,1.5,0.8,2.3,2.5,2.3
	C48.1,37.2,49.1,36.2,49.5,34.2z"/>
<path class="st1" d="M54.5,35.5c0-0.4,0.1-0.9,0.2-1.5l0.1-0.3h2.7l-0.1,0.5c-0.1,0.4-0.1,0.7-0.1,1c0,1.4,1,2,2.3,2
	c1.9,0,2.9-1.4,2.9-2.9c0-1.4-0.9-2.3-2.5-3.3c-0.8-0.5-1.3-0.9-1.6-1.2c-0.6-0.6-1.6-2.1-1.6-3.7c0-1.6,0.5-2.9,1.6-4
	c1.1-1.1,2.4-1.6,4.1-1.6c2.7,0,4.5,1.5,4.5,4c0,0.4-0.1,0.9-0.2,1.5H64c0.1-0.6,0.1-1,0.1-1.2c0-1.2-0.8-1.9-2-1.9
	c-1.6,0-2.7,1.3-2.7,2.8c0,1.4,0.9,2.2,2.5,3.3c1.1,0.7,1.5,1,2.2,1.8c0.8,0.8,1.1,1.8,1.1,3.1c0,1.6-0.6,2.9-1.6,4.1
	c-1.1,1.1-2.5,1.7-4.4,1.7C56.4,39.6,54.5,38.1,54.5,35.5z"/>
<path class="st1" d="M94.2,24.2c0,0.6-0.1,1.3-0.2,2l-2.8,13.1h-2.8l2.7-12.9c0.1-0.5,0.1-1,0.1-1.4c0-1.4-0.7-2.1-1.9-2.1
	c-1.6,0-2.6,1.1-3.2,3.1c0,0,0,0.1,0,0.1l-2.8,13.1h-2.8l2.7-12.9c0.1-0.7,0.2-1.1,0.2-1.4c0-1.4-0.7-2.1-2-2.1
	c-1.6,0-2.9,1.3-3.3,3.7l-2.7,12.7h-2.8l3.9-18.4h2.4L78.5,23c1-1.6,2.4-2.5,4.1-2.5c2.1,0,3.3,0.9,3.7,2.7c1-1.8,2.4-2.7,4.2-2.7
	C92.8,20.5,94.2,21.8,94.2,24.2z"/>
<path class="st1" d="M107.9,25.1c0,0.6-0.1,1.2-0.2,1.9l-0.7,3.5h-8.3L98,33.6c-0.1,0.6-0.1,1.1-0.1,1.2c0,1.6,0.9,2.3,2.6,2.3
	c1.5,0,2.5-1,3-3l0.2-0.8h2.7l-0.2,0.8c-0.7,3.5-2.7,5.5-5.8,5.5c-3.4,0-5.3-1.7-5.3-4.7c0-0.6,0.1-1.2,0.2-1.9l1.5-7.2
	c0.7-3.5,2.7-5.3,5.8-5.3C106,20.5,107.9,22.1,107.9,25.1z M99.1,28.2h5.5l0.4-1.8c0.1-0.6,0.1-1,0.1-1.1c0-1.6-0.9-2.3-2.6-2.3
	c-1.5,0-2.5,1-2.9,2.9L99.1,28.2z"/>
<path class="st1" d="M104.9,42.5c0.4,0.3,0.8,0.4,1.3,0.4c0.7,0,1-0.3,1.3-1.3l4.4-20.7h2.8l-4.5,21.2c-0.5,2.2-1.6,3.3-3.6,3.3
	c-1,0-1.8-0.2-2.3-0.6L104.9,42.5z M112.5,18.2l0.8-4h2.8l-0.8,4H112.5z"/>
<path class="st1" d="M114.9,35c0-0.5,0.1-1.2,0.2-1.8l1.6-7.4c0.8-3.6,2.7-5.3,5.8-5.3c3.2,0,5.2,1.7,5.2,4.7c0,0.7-0.1,1.3-0.2,1.8
	l-1.6,7.4c-0.7,3.5-2.7,5.3-5.8,5.3C116.9,39.6,114.9,37.9,114.9,35z M123.1,34.2l1.7-7.8c0.1-0.4,0.1-0.8,0.1-1.2
	c0-1.5-0.8-2.3-2.5-2.3c-1.5,0-2.5,1-2.9,2.9l-1.7,7.8c-0.1,0.5-0.1,0.9-0.1,1.2c0,1.5,0.8,2.3,2.5,2.3
	C121.6,37.2,122.6,36.2,123.1,34.2z"/>
<path class="st1" d="M139.3,20.8l-0.6,2.7c-0.4-0.2-0.9-0.3-1.6-0.3c-2,0-3.3,1.4-4.1,4.2l-2.5,11.9h-2.8l3.9-18.4h2.4l-0.5,2.7
	c1-2.1,2.3-3.1,4.1-3.1C138.4,20.5,138.9,20.6,139.3,20.8z"/>
<path class="st1" d="M150.9,25.1c0,0.6-0.1,1.2-0.2,1.9l-0.7,3.5h-8.3l-0.7,3.1c-0.1,0.6-0.1,1.1-0.1,1.2c0,1.6,0.9,2.3,2.6,2.3
	c1.5,0,2.5-1,3-3l0.2-0.8h2.7l-0.2,0.8c-0.7,3.5-2.7,5.5-5.8,5.5c-3.4,0-5.3-1.7-5.3-4.7c0-0.6,0.1-1.2,0.2-1.9l1.5-7.2
	c0.7-3.5,2.7-5.3,5.8-5.3C148.9,20.5,150.9,22.1,150.9,25.1z M142.1,28.2h5.5l0.4-1.8c0.1-0.6,0.1-1,0.1-1.1c0-1.6-0.9-2.3-2.6-2.3
	c-1.5,0-2.5,1-2.9,2.9L142.1,28.2z"/>
<path class="st1" d="M151.1,35.5c0-0.4,0.1-0.9,0.2-1.5l0.1-0.3h2.7l-0.1,0.5c-0.1,0.4-0.1,0.7-0.1,1c0,1.4,1,2,2.3,2
	c1.9,0,2.9-1.4,2.9-2.9c0-1.4-0.9-2.3-2.5-3.3c-0.8-0.5-1.3-0.9-1.6-1.2c-0.6-0.6-1.6-2.1-1.6-3.7c0-1.6,0.5-2.9,1.6-4
	c1.1-1.1,2.4-1.6,4.1-1.6c2.7,0,4.5,1.5,4.5,4c0,0.4-0.1,0.9-0.2,1.5h-2.6c0.1-0.6,0.1-1,0.1-1.2c0-1.2-0.8-1.9-2-1.9
	c-1.6,0-2.7,1.3-2.7,2.8c0,1.4,0.9,2.2,2.5,3.3c1.1,0.7,1.5,1,2.2,1.8c0.8,0.8,1.1,1.8,1.1,3.1c0,1.6-0.6,2.9-1.6,4.1
	c-1.1,1.1-2.5,1.7-4.4,1.7C153.1,39.6,151.1,38.1,151.1,35.5z"/>
<path class="st1" d="M183.7,24c0,0.5-0.1,1.1-0.3,2.1l-1.8,8.6c-0.7,3.3-2.3,4.9-4.8,4.9c-1.6,0-2.8-0.7-3.5-2l-1.5,7.3h-4l5.1-24.4
	h3.4l-0.3,1.9c1-1.5,2.2-2.3,3.8-2.3C182.3,20.2,183.7,21.6,183.7,24z M179.5,26c0.1-0.3,0.1-0.7,0.1-1c0-1-0.5-1.4-1.4-1.4
	c-1.1,0-1.9,0.7-2.3,2.1l-1.6,7.5c-0.1,0.4-0.1,0.8-0.1,1c0,1.3,0.6,1.9,1.8,1.9c0.9,0,1.5-0.7,1.8-2.1L179.5,26z"/>
<path class="st1" d="M183.3,39.3l5.5-25.6h4l-5.5,25.6H183.3z"/>
<path class="st1" d="M203.9,24.7c0,0.7-0.1,1.5-0.3,2.3l-1.5,7.4c-0.5,2.2-0.7,3.9-0.6,4.9h-3.7c-0.1-0.1,0-0.7,0.1-1.8
	c-1,1.4-2.2,2.2-3.8,2.2c-2.3,0-3.8-1.5-3.8-4c0-3.6,2.1-5.6,5.9-7c1.5-0.5,2.4-0.9,2.8-1.2c0.4-0.3,0.7-0.7,0.8-1.1v0l0.1-0.5
	c0.1-0.3,0.1-0.6,0.1-0.9c0-0.9-0.5-1.4-1.5-1.4c-1,0-1.6,0.7-1.9,2l-0.2,0.9h-3.7l0.3-1.1c0.8-3.4,2.7-5.1,5.8-5.1
	C202.1,20.2,203.9,21.7,203.9,24.7z M198.2,34.1l0.8-3.8c-0.3,0.3-1,0.6-2.2,1.2c-1.6,0.7-2.4,1.9-2.4,3.4c0,1,0.5,1.5,1.5,1.5
	C197,36.3,197.8,35.6,198.2,34.1z"/>
<path class="st1" d="M212,23.9l-2.3,10.8c0,0.3-0.1,0.4-0.1,0.5c0,0.6,0.4,1,1.4,1c0.3,0,0.7-0.1,1.1-0.2l-0.4,3.3
	c-0.6,0.2-1.2,0.3-2.1,0.3c-2.5,0-4-1.2-4-3.4c0-0.4,0-0.8,0.1-1.2l2.3-11.1h-2.1l0.7-3.3h2.3l1.4-5.1h3.4l-1.1,5.1h2.8l-0.7,3.3
	H212z"/>
<path class="st1" d="M214.4,34.8c0-0.7,0.1-1.3,0.2-1.8l1.6-7.4c0.7-3.5,2.8-5.4,6-5.4c3.4,0,5.5,1.8,5.5,4.8c0,0.7-0.1,1.3-0.2,1.8
	l-1.6,7.4c-0.7,3.5-2.8,5.4-6,5.4C216.5,39.6,214.4,37.9,214.4,34.8z M222,34.1l1.8-8.1c0.1-0.3,0.1-0.6,0.1-0.8
	c0-1.1-0.6-1.6-1.8-1.6c-1.1,0-1.7,0.7-2,2.1l-1.8,8.1c-0.1,0.3-0.1,0.6-0.1,0.8c0,1.1,0.6,1.6,1.8,1.6
	C221,36.2,221.7,35.5,222,34.1z"/>
<path class="st1" d="M227.7,35.2c0-0.4,0.1-1,0.2-1.6l0.1-0.3h3.8l-0.1,0.6c-0.1,0.3-0.1,0.6-0.1,0.9c0,1,0.5,1.5,1.5,1.5
	c1.4,0,2-1.1,2-2.2c0-1.1-0.7-1.9-2.1-2.9c-1-0.7-1.4-1-2.1-1.8c-0.7-0.8-1-1.9-1-3.2c0-1.7,0.5-3.1,1.6-4.2s2.5-1.7,4.3-1.7
	c2.8,0,4.7,1.5,4.7,4.2c0,0.5-0.1,1-0.2,1.6h-3.7c0.1-0.6,0.1-1.1,0.1-1.2c0-0.8-0.4-1.2-1.3-1.2c-1.2,0-1.8,1-1.8,2.1
	c0,1.2,0.8,1.9,2.2,3c0.7,0.5,1.2,0.8,1.5,1.2c0.7,0.6,1.6,2.1,1.6,3.8c0,1.6-0.5,3.1-1.7,4.3c-1.1,1.2-2.6,1.8-4.6,1.8
	C229.7,39.6,227.7,38,227.7,35.2z"/>
<g>
	<path class="st1" d="M40.5,85.1c0,1.4-0.3,2.7-0.8,4c-0.5,1.3-1.2,2.5-2.1,3.7c-0.9,1.2-1.9,2.2-3,3.2c-1.1,1-2.3,1.8-3.6,2.5
		s-2.5,1.3-3.8,1.7c-1.3,0.4-2.6,0.6-3.7,0.6c-1,0-2-0.2-2.9-0.5c-0.9-0.3-1.7-0.8-2.3-1.5c-0.7-0.7-1.2-1.6-1.6-2.7
		c-0.4-1.1-0.6-2.5-0.6-4c0-1.8,0.3-3.7,1-5.9c0.6-2.1,1.5-4.2,2.7-6.3c1.1-2.1,2.5-4.1,4-6.1c1.5-2,3.2-3.7,5.1-5.2
		c1.8-1.5,3.7-2.7,5.8-3.6c2-0.9,4.1-1.3,6.1-1.3c1.2,0,2.2,0.1,3,0.4c0.8,0.3,1.5,0.6,2,1.1s0.9,1,1.1,1.6c0.2,0.6,0.3,1.3,0.3,1.9
		c0,0.9-0.1,1.7-0.4,2.6c-0.3,0.9-0.6,1.7-1,2.5c-0.4,0.8-0.9,1.5-1.4,2.1c-0.5,0.6-1,1.1-1.4,1.3c-0.6-1.9-1.3-3.2-2.1-4
		c-0.8-0.8-1.6-1.2-2.5-1.2c-0.9,0-1.9,0.3-2.8,1c-1,0.6-1.9,1.5-2.8,2.5s-1.8,2.2-2.6,3.4c-0.8,1.3-1.5,2.6-2.2,3.8
		c-0.6,1.3-1.1,2.5-1.5,3.6c-0.4,1.1-0.6,2.1-0.6,2.9c0,0.7,0.3,1.3,0.8,1.7c0.5,0.4,1.3,0.6,2.2,0.6c0.8,0,1.6-0.1,2.6-0.4
		c1-0.3,2-0.7,3-1.2c1-0.5,2.1-1.2,3.1-2.1c1-0.8,2-1.8,3-3V85.1z"/>
	<path class="st1" d="M40.1,94.2c0-1.3,0.2-2.5,0.5-3.6s0.8-2.2,1.3-3.1v-0.4c0-1.6,0.4-3.1,1.2-4.5c0.8-1.4,1.9-2.6,3.2-3.6
		c1.3-1,2.7-1.8,4.3-2.4c1.6-0.6,3.1-0.9,4.5-0.9c0.9,0,1.8,0.1,2.6,0.4c0.8,0.3,1.5,0.7,2.1,1.2s1.1,1.3,1.4,2.2
		c0.4,0.9,0.5,1.9,0.5,3.2c0,1.9-0.4,3.9-1.1,6c-0.8,2.1-1.8,4-3.1,5.8c-1.3,1.8-2.9,3.2-4.8,4.4s-3.8,1.7-6,1.7
		c-0.8,0-1.6-0.2-2.4-0.5c-0.8-0.3-1.5-0.8-2.1-1.3c-0.6-0.6-1.1-1.2-1.5-2C40.2,96,40.1,95.1,40.1,94.2z M54.8,84.3
		c0-1-0.3-1.7-0.8-2.1c-0.5-0.5-1.2-0.7-2-0.7c-0.6,0-1.3,0.1-2.1,0.4c-0.7,0.3-1.4,0.7-2.1,1.2h0.3c0.8,0,1.5,0.2,2.3,0.5
		c0.7,0.3,1.5,0.9,2.2,1.6c-0.9,0.3-1.7,0.7-2.4,1.3c-0.7,0.6-1.3,1.2-1.9,1.9c-0.5,0.7-0.9,1.4-1.2,2.2c-0.3,0.7-0.4,1.4-0.4,2
		c0,0.5,0.1,0.9,0.4,1.2c0.2,0.3,0.6,0.5,1.1,0.5c0.7,0,1.5-0.3,2.2-1c0.8-0.7,1.5-1.5,2.2-2.6c0.7-1,1.2-2.1,1.6-3.2
		C54.6,86.3,54.8,85.3,54.8,84.3z"/>
	<path class="st1" d="M76.3,89.6c-0.6,1.9-1.3,3.6-2.2,5c-0.8,1.4-1.7,2.5-2.6,3.4c-0.9,0.9-1.8,1.5-2.8,1.9
		c-0.9,0.4-1.8,0.6-2.7,0.6c-0.7,0-1.4-0.1-2.1-0.4c-0.6-0.3-1.2-0.7-1.7-1.2c-0.5-0.5-0.9-1.2-1.1-1.9c-0.3-0.8-0.4-1.6-0.4-2.6
		c0-1.1,0.3-2.5,0.8-4.2s1.2-3.5,1.9-5.4c0.8-1.9,1.6-3.9,2.5-5.9c0.9-2,1.8-3.9,2.5-5.7c0.8-1.8,1.4-3.4,1.9-4.8
		c0.5-1.4,0.8-2.5,0.8-3.3c0-0.3,0-0.5-0.1-0.6c0.1,0,0.3-0.1,0.4-0.1c0.1,0,0.3,0,0.4,0c0.6,0,1.2,0.1,1.8,0.3
		c0.7,0.2,1.3,0.5,1.8,0.8c0.6,0.3,1,0.8,1.4,1.2c0.4,0.5,0.6,1,0.6,1.6c0,0.5-0.2,1.1-0.5,1.9c-0.4,0.8-0.8,1.7-1.3,2.7
		c-0.5,1-1.1,2.1-1.7,3.2c-0.6,1.1-1.2,2.3-1.7,3.5c-0.4,0.8-0.8,1.7-1.2,2.9c-0.4,1.1-0.9,2.2-1.2,3.4s-0.7,2.3-1,3.3
		c-0.3,1.1-0.4,2-0.4,2.7c0,1,0.3,1.5,0.9,1.5c0.6,0,1.2-0.1,1.8-0.4c0.6-0.2,1.3-0.5,1.9-0.9c0.6-0.4,1.2-0.8,1.7-1.2
		C75.4,90.4,75.9,90,76.3,89.6z"/>
	<path class="st1" d="M75.3,94.2c0-1.3,0.2-2.5,0.5-3.6c0.3-1.1,0.8-2.2,1.3-3.1v-0.4c0-1.6,0.4-3.1,1.2-4.5
		c0.8-1.4,1.9-2.6,3.2-3.6c1.3-1,2.7-1.8,4.3-2.4c1.6-0.6,3.1-0.9,4.5-0.9c0.9,0,1.8,0.1,2.6,0.4c0.8,0.3,1.5,0.7,2.1,1.2
		s1.1,1.3,1.4,2.2c0.4,0.9,0.5,1.9,0.5,3.2c0,1.9-0.4,3.9-1.1,6c-0.8,2.1-1.8,4-3.1,5.8c-1.3,1.8-2.9,3.2-4.8,4.4
		c-1.8,1.2-3.8,1.7-6,1.7c-0.8,0-1.6-0.2-2.4-0.5c-0.8-0.3-1.5-0.8-2.1-1.3c-0.6-0.6-1.1-1.2-1.5-2C75.5,96,75.3,95.1,75.3,94.2z
		 M90,84.3c0-1-0.3-1.7-0.8-2.1c-0.5-0.5-1.2-0.7-2-0.7c-0.6,0-1.3,0.1-2.1,0.4c-0.7,0.3-1.4,0.7-2.1,1.2h0.3c0.8,0,1.5,0.2,2.3,0.5
		c0.7,0.3,1.5,0.9,2.2,1.6c-0.9,0.3-1.7,0.7-2.4,1.3c-0.7,0.6-1.3,1.2-1.9,1.9c-0.5,0.7-0.9,1.4-1.2,2.2c-0.3,0.7-0.4,1.4-0.4,2
		c0,0.5,0.1,0.9,0.4,1.2c0.2,0.3,0.6,0.5,1.1,0.5c0.7,0,1.5-0.3,2.2-1s1.5-1.5,2.2-2.6c0.7-1,1.2-2.1,1.6-3.2
		C89.8,86.3,90,85.3,90,84.3z"/>
	<path class="st1" d="M124.1,92.9c0,0.7,0.3,1,1,1c0.3,0,0.7-0.1,1.1-0.2c0.4-0.2,0.9-0.4,1.3-0.6c0.4-0.2,0.9-0.5,1.2-0.8
		c0.4-0.3,0.7-0.5,0.9-0.7c-0.1,0.9-0.5,2-1,3c-0.5,1.1-1.2,2.1-2,3c-0.8,0.9-1.7,1.7-2.7,2.3c-1,0.6-2,0.9-3.1,0.9
		c-0.8,0-1.5-0.1-2.1-0.3c-0.5-0.2-1-0.5-1.3-0.9c-0.3-0.4-0.6-0.8-0.7-1.3c-0.1-0.5-0.2-1.1-0.2-1.7c0-1,0.2-2.1,0.5-3.2
		c0.3-1.1,0.7-2.3,1.1-3.3s0.9-2,1.3-2.9c0.5-0.9,0.8-1.5,1.1-1.9c-0.4,0-0.9,0.2-1.5,0.7s-1.2,1.1-1.9,1.9
		c-0.7,0.8-1.4,1.7-2.1,2.7c-0.7,1-1.4,2-2,3.1c-0.6,1.1-1.2,2.2-1.6,3.2c-0.5,1.1-0.8,2.1-0.9,3c-0.4,0.1-0.9,0.2-1.5,0.2
		c-0.5,0-1-0.1-1.5-0.2c-0.5-0.1-0.9-0.4-1.3-0.7s-0.7-0.6-0.9-1c-0.2-0.4-0.3-0.9-0.3-1.4c0-1,0.2-1.9,0.5-2.8
		c0.3-0.9,0.8-1.8,1.2-2.7c0.5-0.9,1-1.8,1.5-2.7c0.5-0.9,0.9-1.8,1.2-2.8c-0.8,0-1.7,0.5-2.6,1.4c-0.9,1-1.9,2.2-2.8,3.6
		s-1.8,3-2.5,4.7s-1.4,3.3-1.8,4.7c-0.1,0-0.2,0-0.4,0c-0.1,0-0.2,0-0.4,0c-1.3,0-2.4-0.4-3.2-1.1c-0.8-0.8-1.2-1.8-1.2-3
		c0-0.3,0.2-1,0.6-1.9c0.4-0.9,0.8-2.1,1.4-3.3c0.6-1.3,1.2-2.7,1.8-4.1c0.6-1.5,1.3-2.9,1.8-4.3c0.6-1.4,1-2.7,1.4-3.8
		s0.6-2,0.6-2.7c0.8-0.2,1.6-0.3,2.4-0.3c1.1,0,2,0.3,2.7,0.8c0.6,0.5,0.9,1.2,0.9,2.2c0,1.1-0.5,2.5-1.4,4c0.8-0.9,1.6-1.7,2.4-2.4
		c0.8-0.8,1.6-1.4,2.5-1.9c0.8-0.5,1.6-1,2.3-1.3c0.8-0.3,1.4-0.5,2.1-0.5c0.9,0,1.6,0.4,2.1,1.1c0.5,0.7,0.8,1.9,0.8,3.6
		c1.4-1.5,2.8-2.7,4.2-3.5s2.6-1.3,3.6-1.3c1,0,1.7,0.2,2.1,0.7c0.4,0.5,0.6,1.1,0.6,1.8c0,0.7-0.1,1.5-0.4,2.3
		c-0.3,0.9-0.6,1.8-1,2.7c-0.4,0.9-0.9,1.9-1.4,2.8c-0.5,0.9-1,1.8-1.4,2.6c-0.4,0.8-0.8,1.5-1,2.1
		C124.2,92.2,124.1,92.7,124.1,92.9z"/>
	<path class="st1" d="M129.8,93.6c0-1.2,0.3-2.7,0.8-4.4c0.6-1.7,1.3-3.6,2.1-5.5s1.7-3.9,2.7-5.9c1-2,1.9-3.9,2.7-5.7
		c0.8-1.8,1.5-3.4,2.1-4.8c0.6-1.4,0.8-2.5,0.8-3.2c0-0.2,0-0.4-0.1-0.5c0.4,0.1,1,0.4,1.7,0.6c0.7,0.3,1.4,0.6,2,1
		c0.6,0.4,1.2,0.9,1.7,1.4c0.5,0.5,0.7,1.1,0.7,1.7c0,0.5-0.2,1.1-0.6,1.9c-0.4,0.7-0.8,1.6-1.3,2.5c-0.5,0.9-1,1.9-1.5,2.9
		c-0.5,1-0.9,2.1-1.2,3.3c0.9-0.8,1.8-1.4,2.7-1.9c0.8-0.5,1.7-0.8,2.5-0.8c1.8,0,3,0.5,3.8,1.5c0.8,1,1.2,2.2,1.2,3.8
		c0,1.2-0.2,2.5-0.6,3.9c-0.4,1.4-1,2.8-1.8,4.3c-0.8,1.4-1.7,2.8-2.7,4.1c-1,1.3-2.2,2.5-3.4,3.5c-1.2,1-2.6,1.8-4,2.5
		c-1.4,0.6-2.8,0.9-4.3,0.9c-1,0-1.9-0.2-2.6-0.6c-0.8-0.4-1.4-0.9-1.9-1.5c-0.5-0.6-0.9-1.3-1.1-2.2
		C129.9,95.4,129.8,94.5,129.8,93.6z M144.9,82.8c-0.3,0-0.7,0.2-1.3,0.5c-0.5,0.4-1.1,0.8-1.7,1.4c-0.6,0.6-1.2,1.2-1.8,1.9
		c-0.6,0.7-1.1,1.4-1.6,2.1c-0.5,0.7-0.9,1.4-1.2,2.1c-0.3,0.6-0.5,1.2-0.5,1.6c0,0.6,0.4,1,1.1,1c0.6,0,1.2-0.2,1.8-0.6
		c0.6-0.4,1.2-0.9,1.7-1.5c0.5-0.6,1-1.3,1.5-2.1c0.5-0.8,0.9-1.5,1.2-2.3c0.3-0.8,0.6-1.4,0.8-2.1c0.2-0.6,0.3-1.1,0.3-1.5
		c0-0.1,0-0.2-0.1-0.3C145.1,82.9,145,82.8,144.9,82.8z"/>
	<path class="st1" d="M150.9,94.8c0-0.9,0.3-2,0.8-3.4c0.5-1.4,1.1-2.9,1.9-4.5c0.7-1.6,1.5-3.3,2.3-5.1c0.8-1.8,1.5-3.4,2.1-5
		c0.1,0,0.3,0,0.5,0c0.2,0,0.3,0,0.5,0c1.4,0,2.5,0.2,3.4,0.6c0.9,0.4,1.3,1.1,1.3,2c0,0.4-0.2,0.9-0.5,1.6
		c-0.3,0.7-0.7,1.6-1.1,2.5c-0.5,0.9-1,1.9-1.5,3c-0.5,1-1,2-1.5,3c-0.5,1-0.8,1.9-1.1,2.7c-0.3,0.8-0.5,1.4-0.5,1.9
		c0,0.6,0.3,0.9,0.8,0.9c0.4,0,0.9-0.2,1.6-0.5c0.6-0.3,1.3-0.7,2-1.1s1.3-0.9,2-1.4c0.6-0.5,1.2-0.9,1.6-1.3
		c-0.2,1-0.6,2.1-1.1,3.3c-0.5,1.2-1.2,2.3-2,3.4c-0.8,1-1.7,1.9-2.8,2.6c-1,0.7-2.2,1.1-3.4,1.1c-0.8,0-1.5-0.2-2.1-0.5
		c-0.6-0.3-1.2-0.8-1.6-1.3s-0.8-1.2-1-1.9C151,96.2,150.9,95.5,150.9,94.8z M164.9,73.9c-0.9,0.2-1.6,0.3-2.2,0.3
		c-1,0-1.8-0.2-2.2-0.6c-0.4-0.4-0.6-1-0.6-1.6s0.2-1.4,0.6-2.2c0.4-0.8,0.9-1.6,1.5-2.3c1.6,0,2.8,0.2,3.5,0.6
		c0.7,0.4,1.1,1.1,1.1,1.9C166.5,71,165.9,72.3,164.9,73.9z"/>
	<path class="st1" d="M180.3,84c0.5-0.1,0.9-0.2,1.3-0.2c0.5,0,1,0.1,1.5,0.3c0.5,0.2,0.9,0.4,1.2,0.8c0.4,0.3,0.6,0.7,0.8,1.1
		c0.2,0.4,0.3,0.8,0.3,1.3c0,0.2-0.1,0.5-0.4,1c-0.3,0.5-0.6,1.1-0.9,1.8c-0.3,0.7-0.6,1.4-0.9,2.1c-0.3,0.7-0.4,1.4-0.4,2.1
		c0,0.3,0.2,0.4,0.5,0.4c0.2,0,0.5-0.1,0.9-0.3c0.4-0.2,0.8-0.4,1.2-0.7c0.4-0.3,0.8-0.6,1.2-0.9c0.4-0.3,0.7-0.7,1-1h0.1
		c-0.1,1-0.3,2-0.6,3c-0.4,1-0.9,2-1.5,2.8c-0.6,0.9-1.4,1.6-2.3,2.1c-0.9,0.6-1.9,0.8-3,0.8c-0.6,0-1.1-0.1-1.5-0.3
		s-0.8-0.5-1.1-0.9c-0.3-0.4-0.6-0.8-0.8-1.3c-0.2-0.5-0.4-1-0.5-1.5c-1.1,1.3-2.3,2.3-3.4,2.9s-2.2,0.9-3.3,0.9
		c-1.6,0-2.9-0.6-3.9-1.8c-1-1.2-1.5-2.9-1.5-5c0-1.7,0.3-3.3,0.8-4.8c0.6-1.5,1.3-2.9,2.2-4.2c0.9-1.3,2-2.4,3.2-3.5
		c1.2-1,2.5-1.9,3.8-2.6c1.3-0.7,2.7-1.3,4-1.7c1.4-0.4,2.6-0.6,3.8-0.6c1.4,0,2.5,0.3,3.3,0.9c0.8,0.6,1.2,1.4,1.2,2.4
		c0,1-0.5,2.2-1.4,3.4c-0.9-0.3-1.8-0.4-2.7-0.4c-1.6,0-3,0.4-4.3,1.1c-1.3,0.7-2.5,1.6-3.4,2.6c-1,1-1.7,2-2.3,3.1
		c-0.5,1.1-0.8,2-0.8,2.6c0,0.7,0.3,1.1,0.9,1.1c0.6,0,1.2-0.3,2-0.9c0.8-0.6,1.6-1.4,2.3-2.3c0.8-0.9,1.4-1.9,2-2.9
		C179.8,85.8,180.2,84.8,180.3,84z"/>
	<path class="st1" d="M191.3,100.4c-0.4,0-0.9-0.1-1.5-0.2c-0.6-0.1-1.2-0.3-1.8-0.6c-0.6-0.2-1.1-0.6-1.5-1
		c-0.4-0.4-0.6-0.9-0.6-1.5c0-0.5,0.2-1.3,0.6-2.3c0.4-1,0.8-2.2,1.4-3.4c0.6-1.3,1.2-2.6,1.9-4.1c0.7-1.4,1.4-2.9,2-4.3
		c0.6-1.4,1.2-2.7,1.7-4c0.5-1.2,0.8-2.3,1-3.2c0.5,0,1,0.1,1.6,0.3c0.6,0.2,1.1,0.4,1.7,0.7c0.5,0.3,0.9,0.7,1.3,1.1
		c0.3,0.4,0.5,0.9,0.5,1.5c0,0.4,0,0.9-0.1,1.4c-0.1,0.5-0.2,1-0.4,1.5c0.8-0.6,1.5-1.3,2.1-1.9c0.7-0.6,1.3-1.2,2-1.7
		c0.7-0.5,1.4-0.9,2.1-1.2c0.7-0.3,1.6-0.5,2.5-0.5c0.7,0,1.3,0.3,1.9,0.9c0.6,0.6,0.8,1.4,0.8,2.4c0,0.9-0.3,1.9-0.8,3
		c-0.6,1.1-1.2,2.2-1.9,3.3c-0.7,1.1-1.3,2.2-1.9,3.3c-0.6,1.1-0.8,2.1-0.8,2.9c0,0.7,0.3,1.1,1,1.1c0.3,0,0.7-0.1,1.1-0.2
		c0.4-0.2,0.9-0.4,1.3-0.6c0.4-0.2,0.8-0.5,1.2-0.7c0.4-0.2,0.7-0.5,0.9-0.6c-0.1,0.9-0.4,1.9-0.9,2.9c-0.5,1-1,1.9-1.7,2.8
		c-0.7,0.8-1.5,1.5-2.5,2.1s-1.9,0.8-3,0.8c-1.9,0-3.1-0.4-3.8-1.1c-0.7-0.8-1.1-1.7-1.1-2.9c0-0.9,0.1-1.8,0.4-2.6
		c0.2-0.9,0.5-1.7,0.9-2.6c0.4-0.9,0.7-1.7,1.2-2.6c0.4-0.9,0.8-1.7,1.2-2.6c-0.6,0-1.3,0.2-1.9,0.7c-0.7,0.5-1.3,1.1-1.9,1.9
		s-1.3,1.7-1.9,2.7c-0.6,1-1.2,2-1.7,3.1c-0.5,1.1-1,2.1-1.3,3.2C191.8,98.5,191.5,99.5,191.3,100.4z"/>
	<path class="st1" d="M209.9,94.2c0-1.3,0.2-2.5,0.5-3.6c0.3-1.1,0.8-2.2,1.3-3.1v-0.4c0-1.6,0.4-3.1,1.2-4.5
		c0.8-1.4,1.9-2.6,3.2-3.6c1.3-1,2.7-1.8,4.3-2.4c1.6-0.6,3.1-0.9,4.5-0.9c0.9,0,1.8,0.1,2.6,0.4c0.8,0.3,1.5,0.7,2.1,1.2
		c0.6,0.6,1.1,1.3,1.4,2.2c0.4,0.9,0.5,1.9,0.5,3.2c0,1.9-0.4,3.9-1.1,6c-0.8,2.1-1.8,4-3.1,5.8c-1.3,1.8-2.9,3.2-4.8,4.4
		c-1.8,1.2-3.8,1.7-6,1.7c-0.8,0-1.6-0.2-2.4-0.5c-0.8-0.3-1.5-0.8-2.1-1.3c-0.6-0.6-1.1-1.2-1.5-2S209.9,95.1,209.9,94.2z
		 M224.6,84.3c0-1-0.3-1.7-0.8-2.1c-0.5-0.5-1.2-0.7-2-0.7c-0.7,0-1.3,0.1-2.1,0.4c-0.7,0.3-1.4,0.7-2.1,1.2h0.3
		c0.8,0,1.5,0.2,2.3,0.5c0.7,0.3,1.5,0.9,2.2,1.6c-0.9,0.3-1.7,0.7-2.4,1.3c-0.7,0.6-1.3,1.2-1.9,1.9c-0.5,0.7-0.9,1.4-1.2,2.2
		c-0.3,0.7-0.4,1.4-0.4,2c0,0.5,0.1,0.9,0.4,1.2c0.2,0.3,0.6,0.5,1.1,0.5c0.7,0,1.5-0.3,2.2-1s1.5-1.5,2.2-2.6
		c0.7-1,1.2-2.1,1.6-3.2C224.4,86.3,224.6,85.3,224.6,84.3z"/>
	<path class="st1" d="M229.6,94.8c0-0.9,0.3-1.8,0.8-2.6c0.5-0.8,1.2-1.5,1.8-2.1c0.4,0.8,0.8,1.5,1.4,2c0.6,0.6,1.2,1,1.9,1.3
		c0.7,0.3,1.4,0.6,2.1,0.8c0.7,0.2,1.4,0.2,2.1,0.2c1.1,0,2-0.2,2.7-0.5c0.8-0.3,1.1-0.8,1.1-1.4c0-0.3-0.2-0.6-0.8-0.8
		c-0.5-0.2-1.1-0.4-1.9-0.5c-0.8-0.2-1.6-0.4-2.4-0.6c-0.9-0.2-1.7-0.5-2.4-0.8c-0.7-0.3-1.4-0.8-1.9-1.3c-0.5-0.5-0.8-1.2-0.8-2
		c0-1.4,0.4-2.7,1.3-4c0.8-1.3,1.9-2.4,3.2-3.3c1.3-1,2.7-1.7,4.3-2.3c1.6-0.6,3.1-0.8,4.5-0.8c0.8,0,1.5,0.1,2,0.3
		c0.5,0.2,1,0.5,1.3,0.9c0.3,0.4,0.6,0.9,0.7,1.4c0.1,0.5,0.2,1.1,0.2,1.7c0,1-0.2,2-0.5,3.1c-0.3,1.1-0.8,2.1-1.3,2.9
		c-0.4-1.3-0.9-2.1-1.6-2.6c-0.7-0.5-1.5-0.7-2.2-0.7c-0.5,0-1,0.1-1.4,0.2c-0.5,0.1-0.9,0.3-1.2,0.6c-0.4,0.2-0.6,0.5-0.9,0.7
		c-0.2,0.3-0.3,0.5-0.3,0.8c0,0.5,0.2,0.8,0.6,1.1c0.4,0.3,0.9,0.5,1.5,0.7c0.6,0.2,1.2,0.4,1.9,0.6c0.7,0.2,1.3,0.5,1.9,0.8
		c0.6,0.4,1.1,0.8,1.5,1.4c0.4,0.6,0.6,1.3,0.6,2.3c0,1.3-0.4,2.4-1.1,3.4c-0.7,1-1.6,1.8-2.8,2.5c-1.1,0.7-2.4,1.2-3.8,1.6
		c-1.4,0.4-2.8,0.6-4.2,0.6c-1.1,0-2.1-0.1-3-0.3c-1-0.2-1.8-0.6-2.6-1c-0.7-0.5-1.3-1.1-1.8-1.8C229.8,96.7,229.6,95.8,229.6,94.8z
		"/>
</g>
</svg>
